<svg width="14" height="14" viewBox="0 0 14 14" fill="none" xmlns="http://www.w3.org/2000/svg">
<path d="M9.02832 1.16602C9.17098 1.16602 9.24244 1.16553 9.30957 1.18164C9.36909 1.19593 9.42632 1.21997 9.47852 1.25195C9.53722 1.28801 9.58781 1.33879 9.68848 1.43945L12.5596 4.31055C12.6602 4.41121 12.711 4.46181 12.7471 4.52051C12.7791 4.5727 12.8031 4.62993 12.8174 4.68945C12.8335 4.75658 12.833 4.82804 12.833 4.9707V9.02734C12.833 9.17001 12.8335 9.24147 12.8174 9.30859C12.8031 9.36811 12.7791 9.42535 12.7471 9.47754C12.711 9.53624 12.6602 9.58683 12.5596 9.6875L9.68848 12.5586C9.58781 12.6593 9.53722 12.71 9.47852 12.7461C9.42632 12.7781 9.36909 12.8021 9.30957 12.8164C9.24244 12.8325 9.17098 12.832 9.02832 12.832H4.97168C4.82902 12.832 4.75756 12.8325 4.69043 12.8164C4.63091 12.8021 4.57368 12.7781 4.52148 12.7461C4.46278 12.71 4.41219 12.6593 4.31152 12.5586L1.44043 9.6875C1.33976 9.58683 1.28899 9.53624 1.25293 9.47754C1.22095 9.42535 1.19691 9.36811 1.18262 9.30859C1.1665 9.24147 1.16699 9.17001 1.16699 9.02734V4.9707C1.16699 4.82804 1.1665 4.75658 1.18262 4.68945C1.19691 4.62993 1.22095 4.5727 1.25293 4.52051C1.28899 4.46181 1.33976 4.41121 1.44043 4.31055L4.31152 1.43945C4.41219 1.33879 4.46278 1.28801 4.52148 1.25195C4.57368 1.21997 4.63091 1.19593 4.69043 1.18164C4.75756 1.16553 4.82902 1.16602 4.97168 1.16602H9.02832ZM7 8.74902C6.67794 8.74902 6.41717 9.01002 6.41699 9.33203C6.41699 9.6542 6.67783 9.91601 7 9.91602H7.00586C7.32801 9.916 7.58887 9.65419 7.58887 9.33203C7.58869 9.01002 7.3279 8.74904 7.00586 8.74902H7ZM7 4.08203C6.67783 4.08203 6.41699 4.34385 6.41699 4.66602V6.99902C6.41699 7.32119 6.67783 7.58203 7 7.58203C7.32217 7.58203 7.58301 7.32119 7.58301 6.99902V4.66602C7.58301 4.34385 7.32217 4.08203 7 4.08203Z" fill="#FFB84D"/>
</svg>
