<svg width="14" height="14" viewBox="0 0 14 14" fill="none" xmlns="http://www.w3.org/2000/svg">
<path d="M1.74996 10.0331V9.62468C1.74996 9.30251 2.01113 9.04134 2.33329 9.04134C2.65546 9.04134 2.91663 9.30251 2.91663 9.62468V10.0331C2.91663 10.5327 2.91683 10.8723 2.93827 11.1348C2.95917 11.3906 2.99717 11.5216 3.04366 11.6128C3.15551 11.8323 3.33403 12.0108 3.55351 12.1226C3.64474 12.1691 3.77571 12.2071 4.03145 12.228C4.29398 12.2495 4.63362 12.2497 5.13318 12.2497H8.86674C9.3663 12.2497 9.70594 12.2495 9.96846 12.228C10.2242 12.2071 10.3552 12.1691 10.4464 12.1226C10.6659 12.0108 10.8444 11.8323 10.9563 11.6128C11.0027 11.5216 11.0408 11.3906 11.0616 11.1348C11.0831 10.8723 11.0833 10.5327 11.0833 10.0331V3.96623C11.0833 3.46667 11.0831 3.12702 11.0616 2.8645C11.0408 2.60876 11.0027 2.47779 10.9563 2.38656C10.8444 2.16708 10.6659 1.98856 10.4464 1.87671C10.3552 1.83022 10.2242 1.79222 9.96846 1.77132C9.70594 1.74988 9.3663 1.74968 8.86674 1.74968H7.29163C6.96946 1.74968 6.70829 1.48851 6.70829 1.16634C6.70829 0.844176 6.96946 0.583009 7.29163 0.583009H8.86674C9.34711 0.583009 9.74254 0.582413 10.0636 0.608644C10.3915 0.635436 10.6931 0.692834 10.9762 0.837078C11.4152 1.06077 11.7722 1.41781 11.9959 1.85677C12.1401 2.13987 12.1975 2.4415 12.2243 2.76937C12.2506 3.09042 12.25 3.48586 12.25 3.96623V10.0331C12.25 10.5135 12.2506 10.9089 12.2243 11.23C12.1975 11.5578 12.1401 11.8595 11.9959 12.1426C11.7722 12.5815 11.4152 12.9386 10.9762 13.1623C10.6931 13.3065 10.3915 13.3639 10.0636 13.3907C9.74254 13.4169 9.34711 13.4163 8.86674 13.4163H5.13318C4.65281 13.4163 4.25737 13.4169 3.93632 13.3907C3.60845 13.3639 3.30682 13.3065 3.02372 13.1623C2.58476 12.9386 2.22772 12.5815 2.00403 12.1426C1.85978 11.8595 1.80239 11.5578 1.77559 11.23C1.74936 10.9089 1.74996 10.5135 1.74996 10.0331ZM1.16663 5.83301V3.49968C1.16663 3.17751 1.42779 2.91634 1.74996 2.91634C2.07213 2.91634 2.33329 3.17751 2.33329 3.49968V5.83301C2.33329 6.47734 2.85563 6.99968 3.49996 6.99968C4.14429 6.99968 4.66663 6.47734 4.66663 5.83301V2.62468C4.66663 2.46359 4.53604 2.33301 4.37496 2.33301C4.21388 2.33301 4.08329 2.46359 4.08329 2.62468V5.83301C4.08329 6.15518 3.82213 6.41634 3.49996 6.41634C3.17779 6.41634 2.91663 6.15518 2.91663 5.83301V2.62468C2.91663 1.81926 3.56954 1.16634 4.37496 1.16634C5.18037 1.16634 5.83329 1.81926 5.83329 2.62468V5.83301C5.83329 7.12167 4.78862 8.16634 3.49996 8.16634C2.21129 8.16634 1.16663 7.12167 1.16663 5.83301Z" fill="#18618B"/>
</svg>
