<svg width="100" height="100" viewBox="0 0 100 100" fill="none" xmlns="http://www.w3.org/2000/svg">
<path d="M45.833 58.3337V41.6667C45.833 39.3656 47.6988 37.4998 50 37.4998C52.3012 37.4998 54.167 39.3656 54.167 41.6667V58.3337C54.1668 60.6348 52.3011 62.4998 50 62.4998C47.6989 62.4998 45.8332 60.6348 45.833 58.3337Z" fill="#0F3C56"/>
<path d="M4.1665 50.001C4.1665 41.5189 6.47476 33.5629 10.4995 26.7412C11.6688 24.7593 14.2236 24.1002 16.2056 25.2695C18.1874 26.4388 18.8464 28.9937 17.6772 30.9756C14.3885 36.5497 12.5005 43.0487 12.5005 50.001C12.5006 67.4686 24.4478 82.1562 40.6226 86.3193C42.8509 86.8931 44.1922 89.1651 43.6187 91.3936C43.0449 93.6219 40.7729 94.9632 38.5444 94.3896C18.7775 89.3017 4.16665 71.3629 4.1665 50.001ZM82.6567 68.4502C83.7907 66.4478 86.3331 65.743 88.3354 66.877C90.3378 68.0109 91.0417 70.5542 89.9077 72.5566C83.8594 83.2368 73.6447 91.2523 61.4556 94.3896C59.2271 94.9632 56.955 93.622 56.3813 91.3936C55.8078 89.165 57.1499 86.8929 59.3784 86.3193C69.3335 83.757 77.7016 77.2001 82.6567 68.4502ZM87.5005 50.001C87.5005 29.2904 70.711 12.5012 50.0005 12.501C43.0364 12.501 36.5272 14.3952 30.9468 17.6943C28.9659 18.8654 26.4108 18.2084 25.2397 16.2275C24.0688 14.2467 24.7247 11.6916 26.7056 10.5205C33.535 6.48299 41.5039 4.16699 50.0005 4.16699C75.3134 4.16717 95.8335 24.688 95.8335 50.001C95.8335 50.1524 95.833 50.3039 95.8315 50.4551C95.8091 52.756 93.9254 54.6033 91.6245 54.5811C89.3235 54.5586 87.4763 52.675 87.4985 50.374C87.4997 50.25 87.5005 50.1254 87.5005 50.001Z" fill="#0F3C56"/>
<path d="M20.833 50C20.833 33.8917 33.8917 20.833 50 20.833C53.5641 20.833 56.988 21.4744 60.1562 22.6514C62.3134 23.4527 63.4127 25.8516 62.6113 28.0088C61.8098 30.1657 59.4109 31.2642 57.2539 30.4629C55.0005 29.6258 52.5586 29.167 50 29.167C38.4941 29.167 29.167 38.4941 29.167 50C29.167 52.5726 29.6307 55.0273 30.4766 57.291C31.282 59.4466 30.1878 61.8469 28.0322 62.6523C25.8766 63.4578 23.4764 62.3636 22.6709 60.208C21.4817 57.0254 20.833 53.5836 20.833 50Z" fill="url(#paint0_linear_5711_7648)"/>
<path d="M70.8335 49.999C70.8334 47.4364 70.3723 44.9908 69.5327 42.7344C68.7302 40.5777 69.8282 38.1785 71.9848 37.376C74.1416 36.5734 76.5407 37.6714 77.3432 39.8281C78.5237 43.0004 79.1665 46.4294 79.1665 49.999C79.1665 66.1073 66.1087 79.1659 50.0005 79.166C46.4602 79.166 43.0582 78.5331 39.9077 77.3711C37.7488 76.5748 36.6438 74.1794 37.4399 72.0205C38.2362 69.8617 40.6316 68.7567 42.7905 69.5527C45.0315 70.3793 47.4587 70.833 50.0005 70.833C61.5063 70.8329 70.8335 61.5049 70.8335 49.999Z" fill="url(#paint1_linear_5711_7648)"/>
<defs>
<linearGradient id="paint0_linear_5711_7648" x1="45.5" y1="51.001" x2="22" y2="32.001" gradientUnits="userSpaceOnUse">
<stop stop-color="#0F3C56"/>
<stop offset="1" stop-color="#0F3C56" stop-opacity="0.5"/>
</linearGradient>
<linearGradient id="paint1_linear_5711_7648" x1="58.174" y1="37.1133" x2="58.174" y2="79.166" gradientUnits="userSpaceOnUse">
<stop stop-color="#0F3C56"/>
<stop offset="1" stop-color="#0F3C56" stop-opacity="0.5"/>
</linearGradient>
</defs>
</svg>
