<svg width="21" height="20" viewBox="0 0 21 20" fill="none" xmlns="http://www.w3.org/2000/svg">
<path fill-rule="evenodd" clip-rule="evenodd" d="M7.41663 0.833313C7.87686 0.833313 8.24996 1.20641 8.24996 1.66665V2.49998H13.25V1.66665C13.25 1.20641 13.6231 0.833313 14.0833 0.833313C14.5435 0.833313 14.9166 1.20641 14.9166 1.66665V2.50133C15.3128 2.50406 15.6591 2.51224 15.9598 2.53681C16.4282 2.57508 16.8588 2.65722 17.2633 2.86329C17.8905 3.18287 18.4004 3.6928 18.72 4.32001C18.9261 4.72446 19.0082 5.15504 19.0465 5.62346C19.0833 6.07445 19.0833 6.62808 19.0833 7.29888V14.3677C19.0833 15.0385 19.0833 15.5922 19.0465 16.0432C19.0082 16.5116 18.9261 16.9422 18.72 17.3466C18.4004 17.9738 17.8905 18.4838 17.2633 18.8033C16.8588 19.0094 16.4282 19.0915 15.9598 19.1298C15.5088 19.1667 14.9552 19.1667 14.2844 19.1666H7.21552C6.54472 19.1667 5.9911 19.1667 5.54011 19.1298C5.07169 19.0915 4.6411 19.0094 4.23666 18.8033C3.60945 18.4838 3.09952 17.9738 2.77994 17.3466C2.57386 16.9422 2.49173 16.5116 2.45345 16.0432C2.41661 15.5922 2.41662 15.0385 2.41663 14.3677V7.2989C2.41662 6.62809 2.41661 6.07445 2.45345 5.62346C2.49173 5.15504 2.57386 4.72446 2.77994 4.32001C3.09952 3.6928 3.60945 3.18287 4.23666 2.86329C4.6411 2.65722 5.07169 2.57508 5.54011 2.53681C5.84078 2.51224 6.18707 2.50406 6.58329 2.50133V1.66665C6.58329 1.20641 6.95639 0.833313 7.41663 0.833313ZM6.58329 4.16811C6.21202 4.17072 5.92048 4.17795 5.67582 4.19794C5.31048 4.22779 5.12364 4.28189 4.99331 4.3483C4.67971 4.50809 4.42474 4.76306 4.26495 5.07666C4.19854 5.207 4.14444 5.39383 4.11459 5.75918C4.08394 6.13425 4.08329 6.6195 4.08329 7.33331V7.49998H17.4166V7.33331C17.4166 6.6195 17.416 6.13425 17.3853 5.75918C17.3555 5.39383 17.3014 5.207 17.235 5.07666C17.0752 4.76306 16.8202 4.50809 16.5066 4.3483C16.3763 4.28189 16.1894 4.22779 15.8241 4.19794C15.5794 4.17795 15.2879 4.17072 14.9166 4.16811V4.99998C14.9166 5.46022 14.5435 5.83331 14.0833 5.83331C13.6231 5.83331 13.25 5.46022 13.25 4.99998V4.16665H8.24996V4.99998C8.24996 5.46022 7.87686 5.83331 7.41663 5.83331C6.95639 5.83331 6.58329 5.46022 6.58329 4.99998V4.16811ZM17.4166 9.16665H4.08329V14.3333C4.08329 15.0471 4.08394 15.5324 4.11459 15.9074C4.14444 16.2728 4.19854 16.4596 4.26495 16.59C4.42474 16.9036 4.67971 17.1585 4.99331 17.3183C5.12364 17.3847 5.31048 17.4388 5.67582 17.4687C6.0509 17.4993 6.53614 17.5 7.24996 17.5H14.25C14.9638 17.5 15.449 17.4993 15.8241 17.4687C16.1894 17.4388 16.3763 17.3847 16.5066 17.3183C16.8202 17.1585 17.0752 16.9036 17.235 16.59C17.3014 16.4596 17.3555 16.2728 17.3853 15.9074C17.416 15.5324 17.4166 15.0471 17.4166 14.3333V9.16665Z" fill="#B4B4B4"/>
</svg>
