<svg width="18" height="18" viewBox="0 0 18 18" fill="none" xmlns="http://www.w3.org/2000/svg">
    <defs>
        <linearGradient id="paint0_linear" x1="6.08345" y1="6.08345" x2="16.9164" y2="21.4995" gradientUnits="userSpaceOnUse">
            <stop offset="0%" stop-color="#0F3C56" stop-opacity="1"/>
            <stop offset="100%" stop-color="#0F3C56" stop-opacity="0.5"/>
        </linearGradient>
    </defs>
    <path d="M9 0.667C13.602 0.667 17.333 4.398 17.333 9C17.333 13.602 13.602 17.333 9 17.333C4.398 17.333 0.667 13.602 0.667 9C0.667 4.398 4.398 0.667 9 0.667ZM14.312 5.077C13.986 4.752 13.458 4.752 13.133 5.077L7.611 10.6L5.423 8.411C5.097 8.086 4.57 8.086 4.244 8.411C3.919 8.737 3.919 9.263 4.244 9.589L7.021 12.367C7.347 12.693 7.875 12.692 8.2 12.367L14.312 6.256C14.637 5.93 14.637 5.403 14.312 5.077Z" fill="url(#paint0_linear)"/>
</svg>
