<svg width="14" height="14" viewBox="0 0 14 14" fill="none" xmlns="http://www.w3.org/2000/svg">
<path d="M1.13333 6.99996C1.13333 4.07359 3.42293 1.66663 6.28906 1.66663C7.23115 1.66666 8.11485 1.92857 8.87448 2.38486C9.12693 2.53651 9.20885 2.86415 9.05729 3.11663C8.90565 3.36906 8.57799 3.45097 8.32552 3.29944C7.72554 2.93902 7.03059 2.73332 6.28906 2.73329C4.04962 2.73329 2.2 4.62439 2.2 6.99996C2.2 9.37552 4.04962 11.2666 6.28906 11.2666C7.03059 11.2666 7.72554 11.0609 8.32552 10.7005C8.57799 10.5489 8.90565 10.6309 9.05729 10.8833C9.20885 11.1358 9.12693 11.4634 8.87448 11.6151C8.11485 12.0714 7.23115 12.3333 6.28906 12.3333C3.42293 12.3333 1.13333 9.92633 1.13333 6.99996Z" fill="url(#paint0_linear_5359_4627)"/>
<path d="M10.5771 4.48952C10.3688 4.28124 10.0312 4.28124 9.82292 4.48952C9.61464 4.6978 9.61464 5.03541 9.82292 5.24369L11.0458 6.46661H5.4C5.10545 6.46661 4.86667 6.70539 4.86667 6.99994C4.86667 7.29449 5.10545 7.53327 5.4 7.53327H11.0458L9.82292 8.75619C9.61464 8.96447 9.61464 9.30208 9.82292 9.51036C10.0312 9.71864 10.3688 9.71864 10.5771 9.51036L12.7104 7.37702C12.9187 7.16874 12.9187 6.83114 12.7104 6.62286L10.5771 4.48952Z" fill="#0F3C56"/>
<defs>
<linearGradient id="paint0_linear_5359_4627" x1="5.13336" y1="1.66663" x2="5.13336" y2="12.3333" gradientUnits="userSpaceOnUse">
<stop stop-color="#0F3C56"/>
<stop offset="1" stop-color="#0F3C56" stop-opacity="0.5"/>
</linearGradient>
</defs>
</svg>
