<svg width="20" height="20" viewBox="0 0 20 20" fill="none" xmlns="http://www.w3.org/2000/svg">
<path d="M18.8 10C18.8 5.61045 15.3656 2 11.0664 2C9.65327 2.00005 8.32773 2.39291 7.18829 3.07734C6.80961 3.30482 6.68672 3.79628 6.91407 4.175C7.14153 4.55365 7.63302 4.67652 8.01173 4.44922C8.91169 3.90859 9.95412 3.60005 11.0664 3.6C14.4256 3.6 17.2 6.43665 17.2 10C17.2 13.5633 14.4256 16.4 11.0664 16.4C9.95412 16.4 8.91169 16.0914 8.01173 15.5508C7.63302 15.3235 7.14153 15.4463 6.91407 15.825C6.68672 16.2037 6.80962 16.6952 7.18829 16.9227C8.32773 17.6071 9.65327 18 11.0664 18C15.3656 18 18.8 14.3896 18.8 10Z" fill="url(#paint0_linear_5359_4694)"/>
<path d="M9.76561 6.23431C9.45319 5.9219 8.94678 5.9219 8.63436 6.23431C8.32194 6.54673 8.32194 7.05315 8.63436 7.36556L10.4687 9.19994H1.99998C1.55815 9.19994 1.19998 9.55811 1.19998 9.99994C1.19998 10.4418 1.55815 10.7999 1.99998 10.7999H10.4687L8.63436 12.6343C8.32194 12.9467 8.32194 13.4531 8.63436 13.7656C8.94678 14.078 9.45319 14.078 9.76561 13.7656L12.9656 10.5656C13.278 10.2531 13.278 9.74673 12.9656 9.43431L9.76561 6.23431Z" fill="#0F3C56"/>
<defs>
<linearGradient id="paint0_linear_5359_4694" x1="12.8" y1="2" x2="12.8" y2="18" gradientUnits="userSpaceOnUse">
<stop stop-color="#0F3C56"/>
<stop offset="1" stop-color="#0F3C56" stop-opacity="0.5"/>
</linearGradient>
</defs>
</svg>
