<svg width="14" height="14" viewBox="0 0 14 14" fill="none" xmlns="http://www.w3.org/2000/svg">
<g clip-path="url(#clip0_5655_1571)">
<path fill-rule="evenodd" clip-rule="evenodd" d="M6.99998 1.75016C4.10048 1.75016 1.74998 4.10067 1.74998 7.00016C1.74998 9.89966 4.10048 12.2502 6.99998 12.2502C9.89948 12.2502 12.25 9.89966 12.25 7.00016C12.25 4.10067 9.89948 1.75016 6.99998 1.75016ZM0.583313 7.00016C0.583313 3.45634 3.45615 0.583496 6.99998 0.583496C10.5438 0.583496 13.4166 3.45634 13.4166 7.00016C13.4166 10.544 10.5438 13.4168 6.99998 13.4168C3.45615 13.4168 0.583313 10.544 0.583313 7.00016Z" fill="#E57171"/>
<path fill-rule="evenodd" clip-rule="evenodd" d="M4.83754 4.83736C5.06535 4.60955 5.43469 4.60955 5.6625 4.83736L7.00002 6.17488L8.33754 4.83736C8.56535 4.60955 8.93469 4.60955 9.1625 4.83736C9.39031 5.06516 9.39031 5.43451 9.1625 5.66232L7.82498 6.99984L9.1625 8.33736C9.39031 8.56516 9.39031 8.93451 9.1625 9.16232C8.93469 9.39012 8.56535 9.39012 8.33754 9.16232L7.00002 7.82479L5.6625 9.16232C5.43469 9.39012 5.06535 9.39012 4.83754 9.16232C4.60974 8.93451 4.60974 8.56516 4.83754 8.33736L6.17506 6.99984L4.83754 5.66232C4.60974 5.43451 4.60974 5.06516 4.83754 4.83736Z" fill="#E57171"/>
</g>
<defs>
<clipPath id="clip0_5655_1571">
<rect width="14" height="14" fill="white"/>
</clipPath>
</defs>
</svg>
