<svg width="14" height="14" viewBox="0 0 14 14" fill="none" xmlns="http://www.w3.org/2000/svg">
<path fill-rule="evenodd" clip-rule="evenodd" d="M2.91246 2.91677H1.75033C1.42816 2.91677 1.16699 3.17794 1.16699 3.5001C1.16699 3.82227 1.42816 4.08344 1.75033 4.08344H2.37125L2.74558 9.69828C2.77495 10.1389 2.79925 10.5036 2.84283 10.8004C2.88821 11.1095 2.96019 11.3919 3.11013 11.6551C3.34354 12.0648 3.69562 12.3942 4.11996 12.5999C4.39255 12.732 4.67912 12.785 4.9905 12.8097C5.28957 12.8334 5.65506 12.8334 6.09671 12.8334H7.90394C8.34559 12.8334 8.71108 12.8334 9.01015 12.8097C9.32153 12.785 9.6081 12.732 9.88069 12.5999C10.305 12.3942 10.6571 12.0648 10.8905 11.6551C11.0405 11.3919 11.1124 11.1095 11.1578 10.8004C11.2014 10.5036 11.2257 10.1389 11.2551 9.6982L11.6294 4.08344H12.2503C12.5725 4.08344 12.8337 3.82227 12.8337 3.5001C12.8337 3.17794 12.5725 2.91677 12.2503 2.91677H11.0882C11.0848 2.91674 11.0814 2.91674 11.078 2.91677H2.92268C2.91928 2.91674 2.91588 2.91674 2.91246 2.91677ZM10.4601 4.08344H3.54051L3.90812 9.59755C3.93942 10.0671 3.96107 10.3854 3.99712 10.631C4.03215 10.8695 4.07494 10.9918 4.12384 11.0776C4.24054 11.2825 4.41658 11.4472 4.62875 11.55C4.71765 11.5931 4.84249 11.6276 5.08283 11.6467C5.33026 11.6663 5.64924 11.6668 6.11987 11.6668H7.88078C8.35141 11.6668 8.67039 11.6663 8.91783 11.6467C9.15816 11.6276 9.283 11.5931 9.3719 11.55C9.58407 11.4472 9.76011 11.2825 9.87681 11.0776C9.92572 10.9918 9.9685 10.8695 10.0035 10.631C10.0396 10.3854 10.0612 10.0671 10.0925 9.59755L10.4601 4.08344Z" fill="#981C1C"/>
<path fill-rule="evenodd" clip-rule="evenodd" d="M4.66699 1.75008C4.66699 1.42792 4.92816 1.16675 5.25033 1.16675H8.75033C9.07249 1.16675 9.33366 1.42792 9.33366 1.75008C9.33366 2.07225 9.07249 2.33341 8.75033 2.33341H5.25033C4.92816 2.33341 4.66699 2.07225 4.66699 1.75008Z" fill="#E57171"/>
</svg>
