<svg width="56" height="56" viewBox="0 0 56 56" fill="none" xmlns="http://www.w3.org/2000/svg">
<path d="M47.3503 36.8499C48.2615 35.9387 49.7385 35.9387 50.6497 36.8499C51.561 37.7612 51.561 39.2382 50.6497 40.1494L40.1497 50.6494C39.2385 51.5606 37.7615 51.5606 36.8503 50.6494L32.1836 45.9828C31.2724 45.0715 31.2724 43.5945 32.1836 42.6833C33.0948 41.7721 34.5719 41.7721 35.4831 42.6833L38.5 45.7002L47.3503 36.8499ZM23.3333 32.6663C24.622 32.6663 25.6667 33.711 25.6667 34.9997C25.6667 36.2883 24.622 37.333 23.3333 37.333H18.6667C17.378 37.333 16.3333 36.2883 16.3333 34.9997C16.3333 33.711 17.378 32.6663 18.6667 32.6663H23.3333ZM44.3333 29.1663V15.8659C44.3333 13.8676 44.3325 12.5091 44.2467 11.459C44.1632 10.436 44.0111 9.91214 43.8252 9.54721C43.3778 8.66928 42.6637 7.9552 41.7858 7.50782C41.4209 7.32188 40.897 7.16985 39.874 7.08627C38.8239 7.00049 37.4654 6.99968 35.4671 6.99968H20.5329C18.5346 6.99968 17.1761 7.00049 16.126 7.08627C15.103 7.16985 14.5791 7.32187 14.2142 7.50782C13.3363 7.9552 12.6222 8.66928 12.1748 9.54721C11.9889 9.91214 11.8368 10.436 11.7533 11.459C11.6675 12.5091 11.6667 13.8676 11.6667 15.8659V40.1335C11.6667 42.1317 11.6675 43.4903 11.7533 44.5404C11.8368 45.5633 11.9889 46.0872 12.1748 46.4522C12.6222 47.3301 13.3363 48.0442 14.2142 48.4915C14.5791 48.6775 15.103 48.8295 16.126 48.9131C17.1761 48.9989 18.5346 48.9997 20.5329 48.9997H28C29.2887 48.9997 30.3333 50.0443 30.3333 51.333C30.3333 52.6217 29.2887 53.6663 28 53.6663H20.5329C18.6114 53.6663 17.0297 53.6687 15.7454 53.5638C14.434 53.4566 13.2274 53.2271 12.0951 52.6501C10.3392 51.7553 8.91104 50.3271 8.01628 48.5713C7.43931 47.4389 7.20971 46.2324 7.10254 44.9209C6.99762 43.6367 7 42.0549 7 40.1335V15.8659C7 13.9444 6.99762 12.3627 7.10254 11.0785C7.20971 9.76699 7.4393 8.56044 8.01628 7.42806C8.91104 5.67222 10.3392 4.24405 12.0951 3.34929C13.2274 2.77231 14.434 2.54272 15.7454 2.43555C17.0297 2.33063 18.6114 2.33301 20.5329 2.33301H35.4671C37.3886 2.33301 38.9703 2.33063 40.2546 2.43555C41.566 2.54272 42.7726 2.77231 43.905 3.34929C45.6608 4.24405 47.089 5.67222 47.9837 7.42806C48.5607 8.56044 48.7903 9.76699 48.8975 11.0785C49.0024 12.3627 49 13.9444 49 15.8659V29.1663C49 30.455 47.9553 31.4997 46.6667 31.4997C45.378 31.4997 44.3333 30.455 44.3333 29.1663ZM32.6667 23.333C33.9553 23.333 35 24.3777 35 25.6663C35 26.955 33.9553 27.9997 32.6667 27.9997H18.6667C17.378 27.9997 16.3333 26.955 16.3333 25.6663C16.3333 24.3777 17.378 23.333 18.6667 23.333H32.6667ZM37.3333 13.9997C38.622 13.9997 39.6667 15.0443 39.6667 16.333C39.6667 17.6217 38.622 18.6663 37.3333 18.6663H18.6667C17.378 18.6663 16.3333 17.6217 16.3333 16.333C16.3333 15.0443 17.378 13.9997 18.6667 13.9997H37.3333Z" fill="#0F3C56"/>
</svg>
