<svg width="16" height="16" viewBox="0 0 16 16" fill="none" xmlns="http://www.w3.org/2000/svg">
<path d="M13.5682 3.6136V13.1221C13.5682 14.4586 12.9032 15.1236 11.586 15.1236H7.11719C8.20599 14.9712 9.33731 14.7452 10.6012 14.3946C11.8993 14.0237 12.4939 13.1924 12.4939 11.7026V2.34111C12.4939 2.12416 12.4774 1.91947 12.4436 1.72933C13.1916 1.97882 13.5682 2.60792 13.5682 3.6136Z" fill="#0F3C56"/>
<path opacity="0.5" d="M11.6236 2.34111V11.7026C11.6236 12.8216 11.2719 13.3012 10.3639 13.5569C7.92123 14.2284 6.02209 14.4266 3.87357 14.5417C2.6906 14.612 2 14.0365 2 12.9239V3.40259C2 2.2452 2.68421 1.65691 3.7201 1.59296C6.02209 1.45868 7.92123 1.13896 9.7117 0.736109C10.9394 0.448362 11.6236 1.06862 11.6236 2.34111ZM6.75745 10.1551C6.1244 10.2574 5.42741 10.3533 4.36594 10.4109C4.09737 10.4365 3.98227 10.5899 3.98227 10.7945C3.98227 11.0055 4.13574 11.1718 4.36594 11.159C5.4466 11.0951 6.16277 10.9928 6.87897 10.8777C7.09636 10.8393 7.21144 10.6666 7.21144 10.494C7.21144 10.2958 7.05162 10.104 6.75745 10.1551ZM9.19371 7.59093C7.72943 7.91707 6.23311 8.1792 4.36594 8.30072C4.09737 8.31993 3.98227 8.47975 3.98227 8.67799C3.98227 8.88899 4.13574 9.05526 4.36594 9.04249C6.23311 8.92097 7.72944 8.65883 9.26404 8.31993C9.57103 8.25597 9.64137 8.10248 9.64137 7.91707C9.64137 7.71245 9.48787 7.53341 9.19371 7.59093ZM9.19371 5.46799C7.72943 5.79413 6.23311 6.05626 4.36594 6.17778C4.09737 6.19693 3.98227 6.35681 3.98227 6.55505C3.98227 6.76606 4.13574 6.93232 4.36594 6.91955C6.23311 6.79803 7.72944 6.53584 9.26404 6.19693C9.57103 6.13298 9.64137 5.97954 9.64137 5.79413C9.64137 5.58951 9.48787 5.41042 9.19371 5.46799ZM9.19371 3.35143C7.72943 3.67115 6.23311 3.93333 4.36594 4.05482C4.09737 4.074 3.98227 4.23386 3.98227 4.43849C3.98227 4.6495 4.13574 4.80936 4.36594 4.79657C6.23311 4.67508 7.72944 4.4193 9.26404 4.074C9.57103 4.01006 9.64137 3.85659 9.64137 3.67115C9.64137 3.46653 9.48787 3.28749 9.19371 3.35143Z" fill="#0F3C56"/>
</svg>
