<svg width="19" height="18" viewBox="0 0 19 18" fill="none" xmlns="http://www.w3.org/2000/svg">
<path d="M3.75 5.1C3.75 3.83988 3.75 3.20982 3.99524 2.72852C4.21095 2.30516 4.55516 1.96095 4.97852 1.74524C5.45982 1.5 6.08988 1.5 7.35 1.5H12.15C13.4101 1.5 14.0402 1.5 14.5215 1.74524C14.9448 1.96095 15.289 2.30516 15.5048 2.72852C15.75 3.20982 15.75 3.83988 15.75 5.1V12.9C15.75 14.1601 15.75 14.7902 15.5048 15.2715C15.289 15.6948 14.9448 16.039 14.5215 16.2548C14.0402 16.5 13.4101 16.5 12.15 16.5H7.35C6.08988 16.5 5.45982 16.5 4.97852 16.2548C4.55516 16.039 4.21095 15.6948 3.99524 15.2715C3.75 14.7902 3.75 14.1601 3.75 12.9V5.1Z" fill="url(#paint0_linear_5439_1733)" fill-opacity="0.5"/>
<path fill-rule="evenodd" clip-rule="evenodd" d="M7.31903 0.75H12.181C12.7847 0.749991 13.283 0.749983 13.6889 0.783146C14.1104 0.81759 14.498 0.891513 14.862 1.07698C15.4265 1.3646 15.8854 1.82354 16.173 2.38803C16.3585 2.75203 16.4324 3.13956 16.4669 3.56113C16.5 3.96702 16.5 4.46529 16.5 5.06901V12.931C16.5 13.5347 16.5 14.033 16.4669 14.4389C16.4324 14.8604 16.3585 15.248 16.173 15.612C15.8854 16.1765 15.4265 16.6354 14.862 16.923C14.498 17.1085 14.1104 17.1824 13.6889 17.2169C13.283 17.25 12.7847 17.25 12.181 17.25H7.31901C6.71529 17.25 6.21702 17.25 5.81113 17.2169C5.38956 17.1824 5.00203 17.1085 4.63803 16.923C4.07354 16.6354 3.6146 16.1765 3.32698 15.612C3.14151 15.248 3.06759 14.8604 3.03315 14.4389C2.99998 14.033 2.99999 13.5347 3 12.931V5.06903C2.99999 4.4653 2.99998 3.96703 3.03315 3.56113C3.06759 3.13956 3.14151 2.75203 3.32698 2.38803C3.6146 1.82354 4.07354 1.3646 4.63803 1.07698C5.00203 0.891513 5.38956 0.81759 5.81113 0.783146C6.21703 0.749983 6.7153 0.749991 7.31903 0.75ZM5.93328 2.27816C5.60447 2.30503 5.43631 2.35372 5.31902 2.41349C5.03677 2.5573 4.8073 2.78677 4.66349 3.06902C4.60372 3.18631 4.55503 3.35447 4.52816 3.68328C4.50058 4.02085 4.5 4.45757 4.5 5.1V12.9C4.5 13.5424 4.50058 13.9792 4.52816 14.3167C4.55503 14.6455 4.60372 14.8137 4.66349 14.931C4.8073 15.2132 5.03677 15.4427 5.31902 15.5865C5.43631 15.6463 5.60447 15.695 5.93328 15.7218C6.27085 15.7494 6.70757 15.75 7.35 15.75H12.15C12.7924 15.75 13.2292 15.7494 13.5667 15.7218C13.8955 15.695 14.0637 15.6463 14.181 15.5865C14.4632 15.4427 14.6927 15.2132 14.8365 14.931C14.8963 14.8137 14.945 14.6455 14.9718 14.3167C14.9994 13.9792 15 13.5424 15 12.9V5.1C15 4.45757 14.9994 4.02085 14.9718 3.68328C14.945 3.35447 14.8963 3.18631 14.8365 3.06902C14.6927 2.78677 14.4632 2.5573 14.181 2.41349C14.0637 2.35372 13.8955 2.30503 13.5667 2.27816C13.2292 2.25058 12.7924 2.25 12.15 2.25H7.35C6.70757 2.25 6.27085 2.25058 5.93328 2.27816Z" fill="white"/>
<path fill-rule="evenodd" clip-rule="evenodd" d="M6 5.25C6 4.83579 6.33579 4.5 6.75 4.5H12.75C13.1642 4.5 13.5 4.83579 13.5 5.25C13.5 5.66421 13.1642 6 12.75 6H6.75C6.33579 6 6 5.66421 6 5.25ZM6 8.25C6 7.83579 6.33579 7.5 6.75 7.5H11.25C11.6642 7.5 12 7.83579 12 8.25C12 8.66421 11.6642 9 11.25 9H6.75C6.33579 9 6 8.66421 6 8.25ZM6 11.25C6 10.8358 6.33579 10.5 6.75 10.5H8.25C8.66421 10.5 9 10.8358 9 11.25C9 11.6642 8.66421 12 8.25 12H6.75C6.33579 12 6 11.6642 6 11.25Z" fill="white"/>
<defs>
<linearGradient id="paint0_linear_5439_1733" x1="3.84375" y1="-0.4875" x2="23.2264" y2="19.3356" gradientUnits="userSpaceOnUse">
<stop stop-color="#0F3C56"/>
<stop offset="1" stop-color="#0F3C56" stop-opacity="0.5"/>
</linearGradient>
</defs>
</svg>
