<svg width="16" height="16" viewBox="0 0 16 16" xmlns="http://www.w3.org/2000/svg">
    <!-- Background shape -->
    <path
        opacity="0.5"
        fill-rule="evenodd"
        clip-rule="evenodd"
        d="M4.50579 2L7.33332 2C7.70151 2 7.99999 2.29848 7.99999 2.66667C7.99999 3.03486 7.70151 3.33333 7.33332 3.33333H4.53332C3.96227 3.33333 3.57408 3.33385 3.27402 3.35837C2.98174 3.38225 2.83227 3.42553 2.728 3.47866C2.47712 3.60649 2.27315 3.81046 2.14531 4.06135C2.09219 4.16561 2.0489 4.31508 2.02502 4.60736C2.00051 4.90742 1.99999 5.29561 1.99999 5.86667V11.4667C1.99999 12.0377 2.00051 12.4259 2.02502 12.726C2.0489 13.0183 2.09219 13.1677 2.14531 13.272C2.27315 13.5229 2.47712 13.7268 2.728 13.8547C2.83227 13.9078 2.98174 13.9511 3.27402 13.975C3.57407 13.9995 3.96227 14 4.53332 14H10.1333C10.7044 14 11.0926 13.9995 11.3926 13.975C11.6849 13.9511 11.8344 13.9078 11.9386 13.8547C12.1895 13.7268 12.3935 13.5229 12.5213 13.272C12.5745 13.1677 12.6177 13.0183 12.6416 12.726C12.6661 12.4259 12.6667 12.0377 12.6667 11.4667V8.66667C12.6667 8.29848 12.9651 8 13.3333 8C13.7015 8 14 8.29848 14 8.66667V11.4942C14 12.0309 14 12.4738 13.9705 12.8346C13.9399 13.2093 13.8742 13.5538 13.7093 13.8773C13.4537 14.3791 13.0457 14.787 12.544 15.0427C12.2204 15.2075 11.8759 15.2733 11.5012 15.3039C11.1404 15.3333 10.6975 15.3333 10.1609 15.3333H4.50577C3.96913 15.3333 3.52623 15.3333 3.16544 15.3039C2.79071 15.2733 2.44624 15.2075 2.12268 15.0427C1.62092 14.787 1.21297 14.3791 0.957307 13.8773C0.792446 13.5538 0.726736 13.2093 0.69612 12.8346C0.666641 12.4738 0.666648 12.0308 0.666657 11.4942V5.83913C0.666648 5.30249 0.666641 4.85958 0.69612 4.49878C0.726736 4.12405 0.792446 3.77958 0.957306 3.45603C1.21297 2.95426 1.62092 2.54631 2.12268 2.29065C2.44624 2.12579 2.79071 2.06008 3.16544 2.02946C3.52624 1.99998 3.96914 1.99999 4.50579 2Z"
        fill="#0F3C56"/>

    <!-- Pen shape -->
    <path
        fill-rule="evenodd"
        clip-rule="evenodd"
        d="M11.8619 1.19541C12.6746 0.382778 13.9921 0.38278 14.8048 1.19541C15.6174 2.00805 15.6174 3.32559 14.8048 4.13822L8.42959 10.5134C8.41639 10.5266 8.40332 10.5397 8.39034 10.5527C8.19871 10.7447 8.02975 10.9139 7.82606 11.0388C7.64711 11.1484 7.45203 11.2292 7.24795 11.2782C7.01566 11.334 6.77649 11.3338 6.50522 11.3335C6.48686 11.3335 6.46836 11.3335 6.44969 11.3335H5.33333C4.96514 11.3335 4.66666 11.035 4.66666 10.6668V9.55048C4.66666 9.53181 4.66665 9.5133 4.66663 9.49494C4.66638 9.22367 4.66615 8.98451 4.72192 8.75221C4.77092 8.54814 4.85173 8.35305 4.96138 8.17411C5.08621 7.97041 5.25548 7.80145 5.44747 7.60982C5.46047 7.59685 5.47357 7.58377 5.48677 7.57057L11.8619 1.19541ZM13.8619 2.13822C13.57 1.84629 13.0967 1.84629 12.8048 2.13822L6.42957 8.51338C6.17653 8.76643 6.12988 8.81914 6.09824 8.87077C6.06168 8.93042 6.03475 8.99545 6.01842 9.06347C6.00428 9.12235 6 9.19262 6 9.55048V10.0002H6.44969C6.80754 10.0002 6.87781 9.99587 6.93669 9.98173C7.00472 9.9654 7.06975 9.93847 7.1294 9.90191C7.18102 9.87027 7.23374 9.82362 7.48678 9.57058L13.8619 3.19541C14.1539 2.90348 14.1539 2.43016 13.8619 2.13822Z"
        fill="#0F3C56"/>
</svg>
