<svg width="20" height="20" viewBox="0 0 20 20" fill="none" xmlns="http://www.w3.org/2000/svg">
<path d="M2.57061 17.4473H17.4294C18.8948 17.4473 19.7544 16.5959 19.7544 14.9094V5.87136C19.7544 4.18491 18.8866 3.3335 17.1838 3.3335H2.32501C0.8596 3.3335 0 4.18491 0 5.87136V14.9094C0 16.5959 0.867787 17.4473 2.57061 17.4473ZM2.52149 16.1948C1.71101 16.1948 1.25256 15.7444 1.25256 14.9012V5.86317C1.25256 5.02813 1.71101 4.58606 2.52149 4.58606H17.2247C18.0352 4.58606 18.5019 5.02813 18.5019 5.87136V14.9094C18.5019 15.7444 18.0352 16.1948 17.2247 16.1948H2.52149ZM9.8731 12.5435C10.397 12.5435 10.9046 12.347 11.3712 11.9213L19.0749 4.9872L18.2235 4.1276L10.659 10.9471C10.4052 11.1763 10.1432 11.2827 9.8731 11.2827C9.60295 11.2827 9.34098 11.1763 9.08718 10.9471L1.52272 4.1276L0.671306 4.9872L8.37496 11.9213C8.84156 12.347 9.34915 12.5435 9.8731 12.5435ZM1.64552 16.3994L7.45806 10.5787L6.60663 9.72727L0.794107 15.5398L1.64552 16.3994ZM18.1171 16.4076L18.9685 15.548L13.1478 9.72727L12.2881 10.5787L18.1171 16.4076Z" fill="#18618B"/>
</svg>
