<svg width="56" height="32" viewBox="0 0 56 32" fill="none" xmlns="http://www.w3.org/2000/svg">
<path d="M2.74352 15.9966C2.74352 15.8238 2.81261 15.6649 2.9439 15.5406L8.41538 10.1796C8.53973 10.0622 8.69171 10 8.87133 10C9.22366 10 9.5 10.2694 9.5 10.6287C9.5 10.8014 9.43092 10.9603 9.32038 11.0777L4.29101 15.9966L9.32038 20.9153C9.43092 21.0328 9.5 21.1848 9.5 21.3644C9.5 21.7236 9.22366 21.9931 8.87133 21.9931C8.69171 21.9931 8.53973 21.9309 8.41538 21.8065L2.9439 16.4525C2.81261 16.3213 2.74352 16.1692 2.74352 15.9966Z" fill="#18618B"/>
<path fill-rule="evenodd" clip-rule="evenodd" d="M27.9999 3.99992C21.3725 3.99992 15.9999 9.3725 15.9999 15.9999C15.9999 22.6273 21.3725 27.9999 27.9999 27.9999C34.6273 27.9999 39.9999 22.6273 39.9999 15.9999C39.9999 9.3725 34.6273 3.99992 27.9999 3.99992ZM13.3333 15.9999C13.3333 7.89974 19.8997 1.33325 27.9999 1.33325C36.1001 1.33325 42.6666 7.89974 42.6666 15.9999C42.6666 24.1001 36.1001 30.6666 27.9999 30.6666C19.8997 30.6666 13.3333 24.1001 13.3333 15.9999ZM30.6666 11.9999C30.6666 11.2635 31.2635 10.6666 31.9999 10.6666H32.0133C32.7496 10.6666 33.3466 11.2635 33.3466 11.9999C33.3466 12.7363 32.7496 13.3333 32.0133 13.3333H31.9999C31.2635 13.3333 30.6666 12.7363 30.6666 11.9999Z" fill="#0F3C56"/>
<path fill-rule="evenodd" clip-rule="evenodd" d="M32 12.6667C32.3682 12.6667 32.6667 12.3682 32.6667 12C32.6667 11.6318 32.3682 11.3333 32 11.3333C31.6318 11.3333 31.3333 11.6318 31.3333 12C31.3333 12.3682 31.6318 12.6667 32 12.6667ZM30 12C30 10.8954 30.8954 10 32 10C33.1046 10 34 10.8954 34 12C34 13.1046 33.1046 14 32 14C30.8954 14 30 13.1046 30 12ZM23.7291 17.8611C23.2862 17.2768 22.4539 17.1596 21.8667 17.6C21.2776 18.0418 21.1582 18.8776 21.6 19.4667L22.6667 18.6667C21.6 19.4667 21.5997 19.4662 21.6 19.4667L21.6013 19.4685L21.6029 19.4705L21.6065 19.4753L21.6161 19.4879L21.6445 19.5242C21.6675 19.5533 21.6987 19.5918 21.7378 19.6384C21.816 19.7316 21.9267 19.8578 22.0686 20.0059C22.3514 20.3009 22.7646 20.6896 23.2991 21.0783C24.363 21.8521 25.966 22.6667 28 22.6667C30.034 22.6667 31.637 21.8521 32.7009 21.0783C33.2354 20.6896 33.6486 20.3009 33.9314 20.0059C34.0733 19.8578 34.184 19.7316 34.2622 19.6384C34.3013 19.5918 34.3325 19.5533 34.3555 19.5242L34.3838 19.4879L34.3935 19.4753L34.3971 19.4705L34.3987 19.4685C34.399 19.468 34.4 19.4667 33.3333 18.6667L34.4 19.4667C34.8418 18.8776 34.7224 18.0418 34.1333 17.6C33.5461 17.1596 32.7138 17.2768 32.2709 17.8611L32.2647 17.869C32.2567 17.879 32.2416 17.8978 32.2196 17.9241C32.1754 17.9768 32.1037 18.0589 32.0061 18.1608C31.8097 18.3657 31.5146 18.6438 31.1324 18.9217C30.363 19.4813 29.2993 20 28 20C26.7007 20 25.637 19.4813 24.8676 18.9217C24.4854 18.6438 24.1903 18.3657 23.9939 18.1608C23.8962 18.0589 23.8246 17.9768 23.7804 17.9241C23.7584 17.8978 23.7433 17.879 23.7353 17.869L23.7291 17.8611Z" fill="url(#paint0_linear_5733_2686)"/>
<path fill-rule="evenodd" clip-rule="evenodd" d="M23.5082 10.2031C23.8332 10.1421 24.1667 10.1421 24.4917 10.2031C24.867 10.2735 25.207 10.4448 25.4771 10.581C25.5021 10.5936 25.5265 10.6059 25.5503 10.6178L25.9296 10.8074C26.5882 11.1367 26.8552 11.9376 26.5259 12.5963C26.1966 13.2549 25.3957 13.5219 24.737 13.1925L24.3577 13.0029C24.1706 12.9093 24.0759 12.8625 24.0056 12.8319L24 12.8294L23.9944 12.8319C23.924 12.8625 23.8293 12.9093 23.6422 13.0029L23.2629 13.1925C22.6043 13.5219 21.8034 13.2549 21.4741 12.5963C21.1447 11.9376 21.4117 11.1367 22.0703 10.8074L22.4496 10.6178C22.4734 10.6059 22.4978 10.5936 22.5228 10.581C22.793 10.4448 23.1329 10.2735 23.5082 10.2031Z" fill="#0F3C56" fill-opacity="0.5"/>
<defs>
<linearGradient id="paint0_linear_5733_2686" x1="28" y1="10" x2="21.3333" y2="25.3333" gradientUnits="userSpaceOnUse">
<stop stop-color="#0F3C56"/>
<stop offset="1" stop-color="#0F3C56" stop-opacity="0.5"/>
</linearGradient>
</defs>
</svg>
