<svg width="56" height="32" viewBox="0 0 56 32" fill="none" xmlns="http://www.w3.org/2000/svg">
<path fill-rule="evenodd" clip-rule="evenodd" d="M28 3.99992C21.3726 3.99992 16 9.3725 16 15.9999C16 22.6273 21.3726 27.9999 28 27.9999C34.6275 27.9999 40 22.6273 40 15.9999C40 9.3725 34.6275 3.99992 28 3.99992ZM13.3334 15.9999C13.3334 7.89974 19.8999 1.33325 28 1.33325C36.1002 1.33325 42.6667 7.89974 42.6667 15.9999C42.6667 24.1001 36.1002 30.6666 28 30.6666C19.8999 30.6666 13.3334 24.1001 13.3334 15.9999ZM30.6667 11.9999C30.6667 11.2635 31.2637 10.6666 32 10.6666H32.0134C32.7498 10.6666 33.3467 11.2635 33.3467 11.9999C33.3467 12.7363 32.7498 13.3333 32.0134 13.3333H32C31.2637 13.3333 30.6667 12.7363 30.6667 11.9999Z" fill="#0F3C56"/>
<path fill-rule="evenodd" clip-rule="evenodd" d="M32 12.6667C32.3682 12.6667 32.6667 12.3682 32.6667 12C32.6667 11.6318 32.3682 11.3333 32 11.3333C31.6318 11.3333 31.3333 11.6318 31.3333 12C31.3333 12.3682 31.6318 12.6667 32 12.6667ZM30 12C30 10.8954 30.8954 10 32 10C33.1046 10 34 10.8954 34 12C34 13.1046 33.1046 14 32 14C30.8954 14 30 13.1046 30 12ZM23.7291 17.8611C23.2862 17.2768 22.4539 17.1596 21.8667 17.6C21.2776 18.0418 21.1582 18.8776 21.6 19.4667L22.6667 18.6667C21.6 19.4667 21.5997 19.4662 21.6 19.4667L21.6013 19.4685L21.6029 19.4705L21.6065 19.4753L21.6161 19.4879L21.6445 19.5242C21.6675 19.5533 21.6987 19.5918 21.7378 19.6384C21.816 19.7316 21.9267 19.8578 22.0686 20.0059C22.3514 20.3009 22.7646 20.6896 23.2991 21.0783C24.363 21.8521 25.966 22.6667 28 22.6667C30.034 22.6667 31.637 21.8521 32.7009 21.0783C33.2354 20.6896 33.6486 20.3009 33.9314 20.0059C34.0733 19.8578 34.184 19.7316 34.2622 19.6384C34.3013 19.5918 34.3325 19.5533 34.3555 19.5242L34.3838 19.4879L34.3935 19.4753L34.3971 19.4705L34.3987 19.4685C34.399 19.468 34.4 19.4667 33.3333 18.6667L34.4 19.4667C34.8418 18.8776 34.7224 18.0418 34.1333 17.6C33.5461 17.1596 32.7138 17.2768 32.2709 17.8611L32.2647 17.869C32.2567 17.879 32.2416 17.8978 32.2196 17.9241C32.1754 17.9768 32.1037 18.0589 32.0061 18.1608C31.8097 18.3657 31.5146 18.6438 31.1324 18.9217C30.363 19.4813 29.2993 20 28 20C26.7007 20 25.637 19.4813 24.8676 18.9217C24.4854 18.6438 24.1903 18.3657 23.9939 18.1608C23.8962 18.0589 23.8246 17.9768 23.7804 17.9241C23.7584 17.8978 23.7433 17.879 23.7353 17.869L23.7291 17.8611Z" fill="url(#paint0_linear_5711_7704)"/>
<path fill-rule="evenodd" clip-rule="evenodd" d="M23.5082 10.2031C23.8332 10.1421 24.1667 10.1421 24.4917 10.2031C24.867 10.2735 25.207 10.4448 25.4771 10.581C25.5021 10.5936 25.5265 10.6059 25.5503 10.6178L25.9296 10.8074C26.5882 11.1367 26.8552 11.9376 26.5259 12.5963C26.1966 13.2549 25.3957 13.5219 24.737 13.1925L24.3577 13.0029C24.1706 12.9093 24.0759 12.8625 24.0056 12.8319L24 12.8294L23.9944 12.8319C23.924 12.8625 23.8293 12.9093 23.6422 13.0029L23.2629 13.1925C22.6043 13.5219 21.8034 13.2549 21.4741 12.5963C21.1447 11.9376 21.4117 11.1367 22.0703 10.8074L22.4496 10.6178C22.4734 10.6059 22.4978 10.5936 22.5228 10.581C22.793 10.4448 23.1329 10.2735 23.5082 10.2031Z" fill="#0F3C56" fill-opacity="0.5"/>
<path d="M53.7565 15.9966C53.7565 15.8238 53.6874 15.6649 53.5561 15.5406L48.0846 10.1796C47.9603 10.0622 47.8083 10 47.6287 10C47.2763 10 47 10.2694 47 10.6287C47 10.8014 47.0691 10.9603 47.1796 11.0777L52.209 15.9966L47.1796 20.9153C47.0691 21.0328 47 21.1848 47 21.3644C47 21.7236 47.2763 21.9931 47.6287 21.9931C47.8083 21.9931 47.9603 21.9309 48.0846 21.8065L53.5561 16.4525C53.6874 16.3213 53.7565 16.1692 53.7565 15.9966Z" fill="#18618B"/>
<defs>
<linearGradient id="paint0_linear_5711_7704" x1="28" y1="10" x2="21.3333" y2="25.3333" gradientUnits="userSpaceOnUse">
<stop stop-color="#0F3C56"/>
<stop offset="1" stop-color="#0F3C56" stop-opacity="0.5"/>
</linearGradient>
</defs>
</svg>
