<svg width="32" height="32" viewBox="0 0 32 32" fill="none" xmlns="http://www.w3.org/2000/svg">
<path fill-rule="evenodd" clip-rule="evenodd" d="M16 4.00004C9.37262 4.00004 4.00004 9.37262 4.00004 16C4.00004 22.6275 9.37262 28 16 28C22.6275 28 28 22.6275 28 16C28 9.37262 22.6275 4.00004 16 4.00004ZM1.33337 16C1.33337 7.89986 7.89986 1.33337 16 1.33337C24.1002 1.33337 30.6667 7.89986 30.6667 16C30.6667 24.1002 24.1002 30.6667 16 30.6667C7.89986 30.6667 1.33337 24.1002 1.33337 16ZM18.6667 12C18.6667 11.2637 19.2637 10.6667 20 10.6667H20.0134C20.7498 10.6667 21.3467 11.2637 21.3467 12C21.3467 12.7364 20.7498 13.3334 20.0134 13.3334H20C19.2637 13.3334 18.6667 12.7364 18.6667 12Z" fill="#0F3C56"/>
<path fill-rule="evenodd" clip-rule="evenodd" d="M20 12.6667C20.3682 12.6667 20.6667 12.3682 20.6667 12C20.6667 11.6318 20.3682 11.3333 20 11.3333C19.6318 11.3333 19.3333 11.6318 19.3333 12C19.3333 12.3682 19.6318 12.6667 20 12.6667ZM18 12C18 10.8954 18.8954 10 20 10C21.1046 10 22 10.8954 22 12C22 13.1046 21.1046 14 20 14C18.8954 14 18 13.1046 18 12ZM11.7291 17.8611C11.2862 17.2768 10.4539 17.1596 9.86666 17.6C9.27756 18.0418 9.15817 18.8776 9.6 19.4667L10.6667 18.6667C9.6 19.4667 9.59967 19.4662 9.6 19.4667L9.60134 19.4685L9.60288 19.4705L9.60654 19.4753L9.61615 19.4879L9.64454 19.5242C9.66753 19.5533 9.69867 19.5918 9.73781 19.6384C9.81601 19.7316 9.92666 19.8578 10.0686 20.0059C10.3514 20.3009 10.7646 20.6896 11.2991 21.0783C12.363 21.8521 13.966 22.6667 16 22.6667C18.034 22.6667 19.637 21.8521 20.7009 21.0783C21.2354 20.6896 21.6486 20.3009 21.9314 20.0059C22.0733 19.8578 22.184 19.7316 22.2622 19.6384C22.3013 19.5918 22.3325 19.5533 22.3555 19.5242L22.3838 19.4879L22.3935 19.4753L22.3971 19.4705L22.3987 19.4685C22.399 19.468 22.4 19.4667 21.3333 18.6667L22.4 19.4667C22.8418 18.8776 22.7224 18.0418 22.1333 17.6C21.5461 17.1596 20.7138 17.2768 20.2709 17.8611L20.2647 17.869C20.2567 17.879 20.2416 17.8978 20.2196 17.9241C20.1754 17.9768 20.1037 18.0589 20.0061 18.1608C19.8097 18.3657 19.5146 18.6438 19.1324 18.9217C18.363 19.4813 17.2993 20 16 20C14.7007 20 13.637 19.4813 12.8676 18.9217C12.4854 18.6438 12.1903 18.3657 11.9939 18.1608C11.8962 18.0589 11.8246 17.9768 11.7804 17.9241C11.7584 17.8978 11.7433 17.879 11.7353 17.869L11.7291 17.8611Z" fill="url(#paint0_linear_5711_7686)"/>
<path fill-rule="evenodd" clip-rule="evenodd" d="M11.5082 10.2031C11.8332 10.1421 12.1667 10.1421 12.4917 10.2031C12.867 10.2735 13.207 10.4448 13.4771 10.581C13.5021 10.5936 13.5265 10.6059 13.5503 10.6178L13.9296 10.8074C14.5882 11.1367 14.8552 11.9376 14.5259 12.5963C14.1966 13.2549 13.3957 13.5219 12.737 13.1925L12.3577 13.0029C12.1706 12.9093 12.0759 12.8625 12.0056 12.8319L12 12.8294L11.9944 12.8319C11.924 12.8625 11.8293 12.9093 11.6422 13.0029L11.2629 13.1925C10.6043 13.5219 9.80338 13.2549 9.47406 12.5963C9.14474 11.9376 9.41171 11.1367 10.0703 10.8074L10.4496 10.6178C10.4734 10.6059 10.4978 10.5936 10.5228 10.581C10.793 10.4448 11.1329 10.2735 11.5082 10.2031Z" fill="#0F3C56" fill-opacity="0.5"/>
<defs>
<linearGradient id="paint0_linear_5711_7686" x1="16" y1="10" x2="9.33333" y2="25.3333" gradientUnits="userSpaceOnUse">
<stop stop-color="#0F3C56"/>
<stop offset="1" stop-color="#0F3C56" stop-opacity="0.5"/>
</linearGradient>
</defs>
</svg>
