<svg width="14" height="12" viewBox="0 0 14 12" fill="none" xmlns="http://www.w3.org/2000/svg">
<path d="M7.87502 6.64812C7.87502 6.54174 7.87185 6.40044 7.90294 6.26075C7.92763 6.14987 7.96817 6.04312 8.0237 5.94402C8.09365 5.81924 8.19033 5.71623 8.26125 5.63697L11.5898 1.91651C11.8181 1.6613 11.9622 1.49928 12.0541 1.3759C12.0603 1.36759 12.0643 1.35865 12.0694 1.3514C12.0608 1.35046 12.0516 1.34832 12.0415 1.34742C11.8883 1.33364 11.6713 1.33318 11.3289 1.33318H2.67059C2.32835 1.33318 2.11172 1.33366 1.95852 1.34742C1.9481 1.34835 1.93838 1.35042 1.92946 1.3514C1.93469 1.35872 1.93915 1.36748 1.94541 1.3759C2.03731 1.49926 2.1814 1.66136 2.40969 1.91651L5.73822 5.63697C5.80915 5.71624 5.90579 5.81918 5.97577 5.94402C6.0175 6.01847 6.05095 6.09714 6.07546 6.17872L6.09711 6.26075L6.1142 6.36556C6.12639 6.46912 6.12502 6.56837 6.12502 6.64812V10.3879L7.87502 9.68783V6.64812ZM9.04169 9.76701C9.04169 9.83449 9.05042 10.0198 8.98643 10.1914C8.93768 10.3221 8.85835 10.4394 8.75515 10.5332C8.61953 10.6564 8.44412 10.7172 8.38145 10.7423L6.39789 11.5352C6.30116 11.5739 6.19214 11.6184 6.09654 11.6469C5.99931 11.6759 5.83928 11.7142 5.65505 11.6759C5.42932 11.629 5.23101 11.4944 5.10362 11.3023C4.99989 11.1456 4.97608 10.9834 4.9669 10.8824C4.95787 10.7829 4.95835 10.6648 4.95835 10.5606V6.64812C4.95835 6.57744 4.9583 6.54206 4.95722 6.51653L4.95665 6.51539L4.95551 6.51368C4.93929 6.49392 4.91604 6.46723 4.86892 6.41456L1.54039 2.69467C1.32758 2.45682 1.1408 2.2487 1.01003 2.07317C0.888013 1.90936 0.733992 1.67243 0.722352 1.37932C0.707942 1.01535 0.864183 0.665623 1.14504 0.43368C1.37119 0.246949 1.65028 0.203604 1.8537 0.185307C2.07171 0.165706 2.35141 0.166508 2.67059 0.166509H11.3289C11.648 0.166509 11.9278 0.165717 12.1458 0.185307C12.3492 0.203595 12.6282 0.246964 12.8544 0.43368C13.1353 0.66562 13.2921 1.01532 13.2777 1.37932C13.2661 1.67242 13.112 1.90936 12.99 2.07317C12.8592 2.24873 12.6719 2.45677 12.4591 2.69467L9.13056 6.41456C9.08343 6.46723 9.06018 6.49392 9.04397 6.51368L9.04283 6.51482V6.51653C9.04174 6.54205 9.04169 6.57744 9.04169 6.64812V9.76701Z" fill="#8E8E8E"/>
</svg>
