<svg width="20" height="20" viewBox="0 0 20 20" fill="none" xmlns="http://www.w3.org/2000/svg">
<path fill-rule="evenodd" clip-rule="evenodd" d="M7.10224 1.66602H12.8977C13.1015 1.66602 13.2034 1.66602 13.2993 1.68904C13.3843 1.70945 13.4656 1.74312 13.5402 1.78882C13.6243 1.84035 13.6964 1.91241 13.8405 2.05653L17.9428 6.15882C18.0869 6.30295 18.159 6.37501 18.2105 6.45911C18.2562 6.53367 18.2899 6.61496 18.3103 6.69999C18.3333 6.7959 18.3333 6.89781 18.3333 7.10163V12.8971C18.3333 13.1009 18.3333 13.2028 18.3103 13.2987C18.2899 13.3837 18.2562 13.465 18.2105 13.5396C18.159 13.6237 18.0869 13.6957 17.9428 13.8399L13.8405 17.9422C13.6964 18.0863 13.6243 18.1583 13.5402 18.2099C13.4656 18.2556 13.3843 18.2892 13.2993 18.3097C13.2034 18.3327 13.1015 18.3327 12.8977 18.3327H7.10224C6.89842 18.3327 6.79651 18.3327 6.7006 18.3097C6.61557 18.2892 6.53428 18.2556 6.45972 18.2099C6.37563 18.1583 6.30356 18.0863 6.15944 17.9422L2.05715 13.8399C1.91302 13.6957 1.84096 13.6237 1.78943 13.5396C1.74374 13.465 1.71006 13.3837 1.68965 13.2987C1.66663 13.2028 1.66663 13.1009 1.66663 12.8971V7.10163C1.66663 6.89781 1.66663 6.7959 1.68965 6.69999C1.71006 6.61496 1.74374 6.53367 1.78943 6.45911C1.84096 6.37501 1.91302 6.30295 2.05715 6.15882L6.15944 2.05654C6.30356 1.91241 6.37563 1.84035 6.45972 1.78882C6.53428 1.74312 6.61557 1.70945 6.7006 1.68904C6.79651 1.66602 6.89842 1.66602 7.10224 1.66602ZM9.01405 6.8958C9.35339 6.69637 9.75235 6.62347 10.1403 6.69001C10.5282 6.75655 10.8801 6.95824 11.1336 7.25935C11.387 7.56047 11.5258 7.94157 11.5252 8.33517L11.5252 8.33641C11.5252 8.72736 11.2209 9.13493 10.6463 9.51804C10.3843 9.69269 10.1164 9.82723 9.9107 9.91865C9.80903 9.96384 9.72547 9.9972 9.66928 10.0186C9.64125 10.0293 9.62024 10.0369 9.60742 10.0415L9.59413 10.0461C9.15806 10.192 8.92251 10.6636 9.06795 11.0999C9.21349 11.5366 9.68542 11.7725 10.122 11.627C10.6077 11.4327 10.1231 11.6266 10.1231 11.6266L10.1244 11.6262L10.1276 11.6251L10.1368 11.622L10.1658 11.6118C10.1896 11.6034 10.2223 11.5915 10.2626 11.5761C10.3431 11.5454 10.4549 11.5007 10.5876 11.4417C10.8506 11.3248 11.2077 11.1468 11.5708 10.9048C12.246 10.4547 13.1915 9.61247 13.1919 8.33717C13.1929 7.55015 12.9155 6.78812 12.4086 6.18602C11.9016 5.58379 11.1979 5.18042 10.422 5.04734C9.64618 4.91425 8.84825 5.06005 8.16958 5.45891C7.49091 5.85777 6.9753 6.48395 6.71407 7.22654C6.56135 7.6607 6.78949 8.13647 7.22365 8.28919C7.65781 8.44192 8.13357 8.21377 8.2863 7.77962C8.41691 7.40832 8.67472 7.09523 9.01405 6.8958ZM9.92522 13.3364C9.46498 13.3364 9.09188 13.7095 9.09188 14.1698C9.09188 14.63 9.46498 15.0031 9.92522 15.0031H9.93355C10.3938 15.0031 10.7669 14.63 10.7669 14.1698C10.7669 13.7095 10.3938 13.3364 9.93355 13.3364H9.92522Z" fill="url(#paint0_linear_6542_5170)"/>
<defs>
<linearGradient id="paint0_linear_6542_5170" x1="7.08329" y1="7.08268" x2="17.9166" y2="22.4993" gradientUnits="userSpaceOnUse">
<stop stop-color="#0F3C56"/>
<stop offset="1" stop-color="#0F3C56" stop-opacity="0.5"/>
</linearGradient>
</defs>
</svg>
