<svg width="24" height="24" viewBox="0 0 24 24" fill="none" xmlns="http://www.w3.org/2000/svg">
    <path fill-rule="evenodd" clip-rule="evenodd"
        d="M11.4773 1.33611C11.8196 1.24343 12.1804 1.24343 12.5227 1.33611C12.92 1.4437 13.2546 1.70636 13.5216 1.91599C13.5471 1.93601 13.572 1.95554 13.5962 1.9744L20.3785 7.24953C20.4046 7.26983 20.4306 7.28994 20.4563 7.30989C20.8329 7.60217 21.1647 7.85967 21.4119 8.19396C21.6289 8.48735 21.7906 8.81786 21.8889 9.16926C22.001 9.56967 22.0006 9.98969 22.0001 10.4664C22 10.499 22 10.5317 22 10.5648V17.8383C22 18.3654 22 18.8202 21.9694 19.1948C21.9371 19.5901 21.8658 19.9833 21.673 20.3617C21.3854 20.9262 20.9264 21.3851 20.362 21.6728C19.9836 21.8656 19.5904 21.9369 19.195 21.9692C18.8204 21.9998 18.3657 21.9998 17.8386 21.9997H6.16142C5.63428 21.9998 5.17953 21.9998 4.80496 21.9692C4.40961 21.9369 4.01639 21.8656 3.63802 21.6728C3.07353 21.3851 2.61459 20.9262 2.32697 20.3617C2.13417 19.9833 2.06286 19.5901 2.03056 19.1948C1.99995 18.8202 1.99997 18.3654 1.99999 17.8383L1.99999 10.5648C1.99999 10.5317 1.99995 10.499 1.99992 10.4664C1.9994 9.98968 1.99895 9.56967 2.11103 9.16926C2.20939 8.81785 2.37104 8.48735 2.58803 8.19396C2.83529 7.85966 3.1671 7.60216 3.54374 7.30987C3.56943 7.28993 3.59534 7.26983 3.62144 7.24953L10.4037 1.9744C10.428 1.95554 10.4529 1.936 10.4784 1.91599C10.7454 1.70636 11.0799 1.4437 11.4773 1.33611ZM11.9927 3.28128C11.9175 3.33149 11.8185 3.40773 11.6316 3.55311L4.84932 8.82823C4.35124 9.21562 4.25849 9.29877 4.196 9.38326C4.12367 9.48105 4.06979 9.59122 4.037 9.70836C4.00867 9.80956 3.99999 9.93382 3.99999 10.5648V17.7997C3.99999 18.3763 4.00076 18.7486 4.02391 19.0319C4.04611 19.3036 4.08379 19.4043 4.10898 19.4537C4.20485 19.6419 4.35784 19.7949 4.546 19.8907C4.59544 19.9159 4.69616 19.9536 4.96782 19.9758C5.25116 19.999 5.62343 19.9997 6.19999 19.9997H17.8C18.3765 19.9997 18.7488 19.999 19.0322 19.9758C19.3038 19.9536 19.4045 19.9159 19.454 19.8907C19.6421 19.7949 19.7951 19.6419 19.891 19.4537C19.9162 19.4043 19.9539 19.3036 19.9761 19.0319C19.9992 18.7486 20 18.3763 20 17.7997V10.5648C20 9.93382 19.9913 9.80956 19.963 9.70836C19.9302 9.59122 19.8763 9.48105 19.804 9.38326C19.7415 9.29877 19.6487 9.21562 19.1507 8.82823L12.3684 3.55311C12.1814 3.40773 12.0824 3.33149 12.0073 3.28128C12.0047 3.27958 12.0023 3.27797 12 3.27645C11.9977 3.27797 11.9952 3.27958 11.9927 3.28128Z"
        fill="gray" />
</svg>
