<svg width="24" height="24" viewBox="0 0 24 24" fill="none" xmlns="http://www.w3.org/2000/svg">
    <path
        d="M20.999 13.0001H18.1182C17.8117 13.0001 17.5316 13.1733 17.3945 13.4474C16.9187 14.399 15.9458 15.0001 14.8818 15.0001H9.11816C8.05419 15.0001 7.08129 14.399 6.60547 13.4474C6.46843 13.1733 6.18827 13.0001 5.88184 13.0001H3.00098C3.00091 13.041 3 13.0852 3 13.1329V15.2003C3 16.0567 3.00035 16.639 3.03711 17.089C3.07293 17.5274 3.13808 17.7519 3.21777 17.9083C3.40951 18.2846 3.71554 18.5906 4.0918 18.7824C4.2482 18.862 4.47272 18.9272 4.91113 18.963C5.36117 18.9998 5.94341 19.0001 6.7998 19.0001H17.2002C18.0566 19.0001 18.6388 18.9998 19.0889 18.963C19.5273 18.9272 19.7518 18.862 19.9082 18.7824C20.2845 18.5906 20.5905 18.2846 20.7822 17.9083C20.8619 17.7519 20.9271 17.5274 20.9629 17.089C20.9997 16.639 21 16.0567 21 15.2003V13.1329C21 13.0852 20.9991 13.041 20.999 13.0001ZM8.9668 5.00013C7.81763 5.00013 7.4812 5.01329 7.20215 5.1095C6.92196 5.20615 6.66684 5.36406 6.45508 5.57142C6.24417 5.77799 6.08139 6.07269 5.56738 7.10072L3.61816 11.0001H5.88184C6.94581 11.0001 7.91871 11.6012 8.39453 12.5529C8.53157 12.8269 8.81173 13.0001 9.11816 13.0001H14.8818C15.1883 13.0001 15.4684 12.8269 15.6055 12.5529C16.0813 11.6012 17.0542 11.0001 18.1182 11.0001H20.3818L18.4326 7.10072C17.9186 6.07269 17.7558 5.77799 17.5449 5.57142C17.3332 5.36406 17.078 5.20615 16.7979 5.1095C16.5188 5.01329 16.1824 5.00013 15.0332 5.00013H8.9668ZM23 15.2003C23 16.0238 23.001 16.7017 22.9561 17.2521C22.9101 17.8141 22.8117 18.3312 22.5645 18.8165C22.181 19.569 21.5689 20.1811 20.8164 20.5646C20.3311 20.8119 19.814 20.9103 19.252 20.9562C18.7016 21.0012 18.0237 21.0001 17.2002 21.0001H6.7998C5.97632 21.0001 5.29843 21.0012 4.74805 20.9562C4.18599 20.9103 3.6689 20.8119 3.18359 20.5646C2.43109 20.1811 1.81902 19.569 1.43555 18.8165C1.18827 18.3312 1.08987 17.8141 1.04395 17.2521C0.998978 16.7017 1 16.0238 1 15.2003V13.1329C0.999999 12.7372 0.998232 12.4451 1.03906 12.1535C1.07338 11.9085 1.13011 11.6672 1.20898 11.4327C1.30292 11.1536 1.43527 10.8933 1.6123 10.5392L3.7793 6.20618C4.2284 5.30797 4.54813 4.6398 5.05566 4.14271C5.47921 3.7279 5.98937 3.4122 6.5498 3.21888C7.22145 2.98721 7.96242 3.00013 8.9668 3.00013H15.0332C16.0376 3.00013 16.7785 2.98721 17.4502 3.21888C18.0106 3.4122 18.5208 3.7279 18.9443 4.14271C19.4519 4.6398 19.7716 5.30798 20.2207 6.20618L22.3877 10.5392C22.5647 10.8933 22.6971 11.1536 22.791 11.4327C22.8699 11.6672 22.9266 11.9085 22.9609 12.1535C23.0018 12.4451 23 12.7372 23 13.1329V15.2003Z"
        fill="gray" />
</svg>
