<svg width="16" height="16" viewBox="0 0 16 16" fill="none" xmlns="http://www.w3.org/2000/svg">
<path d="M12.6667 9.86621C12.6667 9.29528 12.6664 8.90712 12.6419 8.6071C12.618 8.31482 12.5746 8.16514 12.5215 8.06087C12.3937 7.81004 12.1896 7.60601 11.9388 7.47819C11.8345 7.42506 11.6849 7.38163 11.3926 7.35775C11.0926 7.33324 10.7044 7.33301 10.1335 7.33301H5.86654C5.29561 7.33301 4.90745 7.33324 4.60742 7.35775C4.31515 7.38163 4.16547 7.42506 4.0612 7.47819C3.81036 7.60601 3.60634 7.81004 3.47852 8.06087C3.42539 8.16514 3.38195 8.31482 3.35807 8.6071C3.33357 8.90712 3.33333 9.29528 3.33333 9.86621V10.7998L3.33659 11.5309C3.33978 11.7368 3.34582 11.9089 3.35807 12.0589C3.38195 12.3512 3.42539 12.5009 3.47852 12.6051C3.60634 12.856 3.81036 13.06 4.0612 13.1878C4.16547 13.241 4.31515 13.2844 4.60742 13.3083C4.90745 13.3328 5.29561 13.333 5.86654 13.333H10.1335C10.7044 13.333 11.0926 13.3328 11.3926 13.3083C11.6849 13.2844 11.8345 13.241 11.9388 13.1878C12.1896 13.06 12.3937 12.856 12.5215 12.6051C12.5746 12.5009 12.618 12.3512 12.6419 12.0589C12.6664 11.7589 12.6667 11.3707 12.6667 10.7998V9.86621ZM7.33333 10.9997V9.66634C7.33333 9.29815 7.63181 8.99967 8 8.99967C8.36819 8.99967 8.66667 9.29815 8.66667 9.66634V10.9997C8.66667 11.3679 8.36819 11.6663 8 11.6663C7.63181 11.6663 7.33333 11.3679 7.33333 10.9997ZM10.6667 5.33301C10.6667 3.86025 9.47276 2.66634 8 2.66634C6.52724 2.66634 5.33333 3.86025 5.33333 5.33301V6.00163C5.49988 6.00048 5.67744 5.99967 5.86654 5.99967H10.1335C10.3226 5.99967 10.5001 6.00048 10.6667 6.00163V5.33301ZM12 6.10059C12.1884 6.14187 12.3696 6.20103 12.5443 6.29004C13.0459 6.54569 13.454 6.95373 13.7096 7.4554C13.8745 7.77894 13.9401 8.12367 13.9707 8.49837C14.0007 8.86529 14 9.31722 14 9.86621V10.7998C14 11.3488 14.0007 11.8007 13.9707 12.1676C13.9401 12.5423 13.8745 12.8871 13.7096 13.2106C13.454 13.7123 13.0459 14.1203 12.5443 14.376C12.2207 14.5408 11.876 14.6064 11.5013 14.637C11.1344 14.667 10.6825 14.6663 10.1335 14.6663H5.86654C5.31754 14.6663 4.86562 14.667 4.4987 14.637C4.12399 14.6064 3.77927 14.5408 3.45573 14.376C2.95406 14.1203 2.54601 13.7123 2.29037 13.2106C2.12552 12.8871 2.05992 12.5423 2.0293 12.1676C2.0143 11.9841 2.00687 11.7793 2.00326 11.5518L2 10.7998V9.86621C2 9.31722 1.99932 8.86529 2.0293 8.49837C2.05992 8.12367 2.12552 7.77894 2.29037 7.4554C2.54601 6.95373 2.95406 6.54568 3.45573 6.29004C3.63042 6.20103 3.81165 6.14187 4 6.10059V5.33301C4 3.12387 5.79086 1.33301 8 1.33301C10.2091 1.33301 12 3.12387 12 5.33301V6.10059Z" fill="#FFB84D"/>
</svg>
