<svg width="12" height="12" viewBox="0 0 12 12" fill="none" xmlns="http://www.w3.org/2000/svg">
<path fill-rule="evenodd" clip-rule="evenodd" d="M3.70822 0.491889L4.32512 0.560434C4.3336 0.561376 4.34196 0.562303 4.3502 0.563217C4.49717 0.579521 4.60644 0.591642 4.70502 0.611244C5.72377 0.8138 6.48597 1.66538 6.57479 2.70026C6.58338 2.80041 6.58336 2.91034 6.58333 3.05822C6.58333 3.06651 6.58333 3.07492 6.58333 3.08345C6.58333 3.40562 6.32216 3.66679 6 3.66679C5.67783 3.66679 5.41667 3.40562 5.41667 3.08345C5.41667 2.89937 5.41613 2.84363 5.41239 2.80002C5.36798 2.28258 4.98689 1.85679 4.47751 1.75551C4.43459 1.74698 4.37924 1.74029 4.19628 1.71996L3.60046 1.65376C3.14454 1.60311 2.83297 1.56883 2.5903 1.55921C2.35214 1.54976 2.22899 1.56711 2.14442 1.59417C1.82836 1.69532 1.57033 1.92627 1.4349 2.22923C1.39867 2.31029 1.36782 2.43077 1.35091 2.66852C1.33368 2.91077 1.33333 3.22422 1.33333 3.68294V8.3173C1.33333 8.77602 1.33368 9.08948 1.35091 9.33172C1.36782 9.56948 1.39867 9.68996 1.4349 9.77102C1.57033 10.074 1.82836 10.3049 2.14442 10.4061C2.22898 10.4331 2.35213 10.4505 2.59031 10.441C2.83298 10.4314 3.14455 10.3971 3.60046 10.3465L4.19629 10.2803C4.37919 10.26 4.4346 10.2533 4.47751 10.2447C4.98689 10.1435 5.36798 9.71766 5.41239 9.20022C5.41613 9.15662 5.41667 9.10087 5.41667 8.91679C5.41667 8.59462 5.67783 8.33346 6 8.33346C6.32216 8.33346 6.58333 8.59462 6.58333 8.91679C6.58333 8.92532 6.58333 8.93373 6.58333 8.94203C6.58336 9.0899 6.58338 9.19984 6.57479 9.29998C6.48597 10.3349 5.72377 11.1864 4.70502 11.389C4.60645 11.4086 4.4971 11.4207 4.35014 11.437L3.70821 11.5084C3.27857 11.5561 2.92562 11.5953 2.63656 11.6068C2.33827 11.6186 2.05985 11.604 1.78885 11.5172C1.15672 11.3149 0.640654 10.853 0.369803 10.2471C0.253683 9.98735 0.208357 9.71226 0.187179 9.41449C0.166654 9.12593 0.166659 8.7708 0.166664 8.33851V3.66174C0.166659 3.22944 0.166654 2.87432 0.187179 2.58575C0.208357 2.28798 0.253683 2.01289 0.369803 1.75312C0.640655 1.1472 1.15672 0.685296 1.78885 0.483014C2.05985 0.396291 2.33827 0.381622 2.63655 0.393455C2.92562 0.404924 3.27857 0.444145 3.70822 0.491889ZM7.92085 2.67098C8.14866 2.44317 8.518 2.44317 8.74581 2.67098L11.6625 5.58764C11.8903 5.81545 11.8903 6.18479 11.6625 6.4126L8.74581 9.32927C8.518 9.55707 8.14866 9.55707 7.92085 9.32927C7.69305 9.10146 7.69305 8.73211 7.92085 8.50431L9.84171 6.58346H4.25C3.92783 6.58346 3.66666 6.32229 3.66666 6.00012C3.66666 5.67796 3.92783 5.41679 4.25 5.41679H9.84171L7.92085 3.49593C7.69305 3.26813 7.69305 2.89878 7.92085 2.67098Z" fill="#E57171"/>
</svg>
