<svg width="24" height="24" viewBox="0 0 24 24" fill="none" xmlns="http://www.w3.org/2000/svg">
<path d="M1 12C1 5.92487 5.92487 1 12 1C12.5523 1 13 1.44772 13 2C13 2.55228 12.5523 3 12 3C7.02944 3 3 7.02944 3 12C3 16.9706 7.02944 21 12 21C16.9706 21 21 16.9706 21 12C21 11.4477 21.4477 11 22 11C22.5523 11 23 11.4477 23 12C23 18.0751 18.0751 23 12 23C5.92487 23 1 18.0751 1 12ZM6 12C6 8.68629 8.68629 6 12 6C12.5523 6 13 6.44772 13 7C13 7.55228 12.5523 8 12 8C9.79086 8 8 9.79086 8 12C8 14.2091 9.79086 16 12 16C14.2091 16 16 14.2091 16 12C16 11.4477 16.4477 11 17 11C17.5523 11 18 11.4477 18 12C18 15.3137 15.3137 18 12 18C8.68629 18 6 15.3137 6 12Z" fill="#0F3C56"/>
<path d="M19 2L16 5V8H19L22 5L20 4L19 2Z" fill="url(#paint0_linear_6462_14889)"/>
<path d="M16 8L12 11.9999L16 8Z" fill="url(#paint1_linear_6462_14889)"/>
<path d="M19.1602 1.01285C19.4775 1.06434 19.7508 1.26539 19.8945 1.55289L20.7451 3.25407L22.4473 4.10563C22.7348 4.24938 22.9358 4.52271 22.9873 4.84C23.0388 5.15727 22.9343 5.47991 22.707 5.70719L19.707 8.70719C19.5195 8.89472 19.2652 9.00016 19 9.00016H16.4141L12.707 12.7072C12.3165 13.0977 11.6835 13.0977 11.293 12.7072C10.9025 12.3167 10.9025 11.6837 11.293 11.2931L15 7.5861V5.00016C15 4.73494 15.1054 4.48066 15.293 4.29313L18.293 1.29313L18.3828 1.21403C18.6012 1.04257 18.8826 0.967823 19.1602 1.01285ZM17 5.41422V7.00016H18.5859L20.3115 5.2736L19.5527 4.89469C19.3592 4.79793 19.2022 4.64095 19.1055 4.44742L18.7256 3.68766L17 5.41422Z" fill="#0F3C56"/>
<defs>
<linearGradient id="paint0_linear_6462_14889" x1="17.5" y1="-2" x2="17" y2="11.9999" gradientUnits="userSpaceOnUse">
<stop stop-color="#0F3C56"/>
<stop offset="1" stop-color="#0F3C56" stop-opacity="0"/>
</linearGradient>
<linearGradient id="paint1_linear_6462_14889" x1="17.5" y1="-2" x2="17" y2="11.9999" gradientUnits="userSpaceOnUse">
<stop stop-color="#0F3C56"/>
<stop offset="1" stop-color="#0F3C56" stop-opacity="0"/>
</linearGradient>
</defs>
</svg>
