<svg width="14" height="14" viewBox="0 0 14 14" fill="none" xmlns="http://www.w3.org/2000/svg">
<path d="M11.6767 7.0181C11.7913 7.0181 11.8698 6.93967 11.8819 6.81897C12.081 5.20777 12.1595 5.16549 13.7948 4.9C13.9216 4.8819 14 4.81552 14 4.70086C14 4.58621 13.9216 4.51379 13.8189 4.49569C12.1715 4.18189 12.081 4.18793 11.8819 2.57673C11.8698 2.45603 11.7913 2.37759 11.6767 2.37759C11.5681 2.37759 11.4896 2.45603 11.4715 2.57069C11.2664 4.20604 11.206 4.26035 9.53446 4.49569C9.43188 4.50776 9.35345 4.58621 9.35345 4.70086C9.35345 4.80948 9.43188 4.8819 9.53446 4.9C11.206 5.21982 11.2603 5.21982 11.4715 6.83102C11.4896 6.93967 11.5681 7.0181 11.6767 7.0181ZM8.79222 2.93276C8.86462 2.93276 8.90087 2.89052 8.91292 2.82414C9.1 1.81638 9.09397 1.79224 10.1439 1.5931C10.2103 1.58103 10.2586 1.53879 10.2586 1.46638C10.2586 1.39396 10.2103 1.35172 10.1439 1.33965C9.09397 1.12845 9.13017 1.10431 8.91292 0.108621C8.90087 0.0422414 8.86462 0 8.79222 0C8.71982 0 8.67759 0.0422414 8.66549 0.108621C8.45431 1.10431 8.49051 1.12845 7.44049 1.33965C7.36809 1.35172 7.32587 1.39396 7.32587 1.46638C7.32587 1.53879 7.36809 1.58103 7.44049 1.5931C8.49051 1.80431 8.47841 1.81638 8.66549 2.82414C8.67759 2.89052 8.71982 2.93276 8.79222 2.93276Z" fill="#FFB84D"/>
<path d="M7.05478 12.5334C9.19704 12.5334 10.953 11.3266 11.7436 9.61278C11.8401 9.40155 11.816 9.22049 11.7074 9.11189C11.6229 9.02739 11.46 9.01534 11.2789 9.07569C10.7841 9.27482 10.2289 9.37137 9.58325 9.37137C6.89185 9.37137 5.15392 7.68174 5.15392 5.04466C5.15392 4.37483 5.32895 3.59035 5.52808 3.18C5.63065 2.96879 5.63065 2.78776 5.5341 2.67914C5.43755 2.55845 5.25047 2.53432 5.02117 2.63087C3.16858 3.43345 1.92548 5.29813 1.92548 7.39209C1.92548 10.2343 4.1522 12.5334 7.05478 12.5334Z" fill="#B06900"/>
</svg>
