<svg width="12" height="12" viewBox="0 0 12 12" fill="none" xmlns="http://www.w3.org/2000/svg">
<path d="M10.1465 7.89648C10.3417 7.70122 10.6583 7.70122 10.8535 7.89648C11.0488 8.09175 11.0488 8.40825 10.8535 8.60352L8.60352 10.8535C8.40825 11.0488 8.09175 11.0488 7.89648 10.8535L6.89648 9.85352L6.8623 9.81543C6.70213 9.61904 6.71343 9.32954 6.89648 9.14648C7.07954 8.96343 7.36904 8.95213 7.56543 9.1123L7.60352 9.14648L8.25 9.79297L10.1465 7.89648ZM5.5 3C5.5 2.72386 5.72386 2.5 6 2.5C6.27614 2.5 6.5 2.72386 6.5 3V5.69092L8.09277 6.4873C8.33976 6.6108 8.4399 6.91121 8.31641 7.1582C8.20062 7.38978 7.92936 7.49224 7.69238 7.40234L7.64551 7.38184L5.77637 6.44727C5.60698 6.36257 5.5 6.18939 5.5 6V3ZM10.5 6C10.5 3.51472 8.48528 1.5 6 1.5C3.51472 1.5 1.5 3.51472 1.5 6C1.5 8.36946 3.33145 10.3111 5.65576 10.4868L5.88184 10.4985L5.93311 10.5024C6.18449 10.5345 6.37578 10.7524 6.36914 11.0112C6.36246 11.27 6.16034 11.4779 5.90771 11.4971L5.85645 11.498L5.57959 11.4844C2.73831 11.2695 0.5 8.89612 0.5 6C0.5 2.96243 2.96243 0.5 6 0.5C9.03757 0.5 11.5 2.96243 11.5 6C11.5 6.1012 11.4971 6.20181 11.4917 6.30176C11.4768 6.5775 11.2411 6.78936 10.9653 6.77441C10.6897 6.75939 10.4783 6.52365 10.4932 6.24805C10.4976 6.16603 10.5 6.08322 10.5 6Z" fill="#367839"/>
</svg>
