<svg width="12" height="12" viewBox="0 0 12 12" fill="none" xmlns="http://www.w3.org/2000/svg">
<path d="M9 11V10H8C7.72386 10 7.5 9.77614 7.5 9.5C7.5 9.22386 7.72386 9 8 9H9V8C9 7.72386 9.22386 7.5 9.5 7.5C9.77614 7.5 10 7.72386 10 8V9H11C11.2761 9 11.5 9.22386 11.5 9.5C11.5 9.77614 11.2761 10 11 10H10V11C10 11.2761 9.77614 11.5 9.5 11.5C9.22386 11.5 9 11.2761 9 11ZM5.5 3C5.5 2.72386 5.72386 2.5 6 2.5C6.27614 2.5 6.5 2.72386 6.5 3V5.69092L8.09277 6.4873C8.33976 6.6108 8.4399 6.91121 8.31641 7.1582C8.19291 7.40519 7.8925 7.50533 7.64551 7.38184L5.77637 6.44727C5.60698 6.36257 5.5 6.18939 5.5 6V3ZM10.5 6C10.5 3.51472 8.48528 1.5 6 1.5C3.51472 1.5 1.5 3.51472 1.5 6C1.5 8.48528 3.51472 10.5 6 10.5C6.19638 10.5 6.38978 10.4877 6.5791 10.4634C6.85293 10.4283 7.10354 10.6217 7.13867 10.8955C7.17378 11.1694 6.97993 11.4199 6.70605 11.4551C6.47468 11.4848 6.239 11.5 6 11.5C2.96243 11.5 0.5 9.03757 0.5 6C0.5 2.96243 2.96243 0.5 6 0.5C9.03757 0.5 11.5 2.96243 11.5 6C11.5 6.23523 11.4853 6.46744 11.4565 6.69531C11.4219 6.96913 11.1718 7.16289 10.8979 7.12842C10.624 7.09383 10.4298 6.84379 10.4644 6.56982C10.4879 6.38341 10.5 6.19324 10.5 6Z" fill="#FFB84D"/>
</svg>
