<svg width="14" height="14" viewBox="0 0 14 14" fill="none" xmlns="http://www.w3.org/2000/svg">
<path d="M6.46666 3.79997C6.46666 3.50542 6.70545 3.26663 7 3.26663C7.29455 3.26663 7.53333 3.50542 7.53333 3.79997V6.67028L9.23229 7.51976C9.49574 7.65149 9.60256 7.97193 9.47083 8.23538C9.3391 8.49884 9.01866 8.60565 8.75521 8.47393L6.76146 7.47705C6.58077 7.38671 6.46666 7.20198 6.46666 6.99997V3.79997ZM11.8 6.99997C11.8 4.349 9.65096 2.19997 7 2.19997C4.34903 2.19997 2.2 4.349 2.2 6.99997C2.2 9.65093 4.34903 11.8 7 11.8C7.20946 11.8 7.41577 11.7868 7.61771 11.7609C7.90979 11.7235 8.17711 11.9297 8.21458 12.2218C8.25202 12.514 8.04526 12.7812 7.75312 12.8187C7.50632 12.8504 7.25493 12.8666 7 12.8666C3.75993 12.8666 1.13333 10.24 1.13333 6.99997C1.13333 3.7599 3.75993 1.1333 7 1.1333C10.2401 1.1333 12.8667 3.7599 12.8667 6.99997C12.8667 7.25088 12.851 7.49857 12.8203 7.74163C12.7833 8.0337 12.5166 8.24038 12.2245 8.20361C11.9322 8.16672 11.7251 7.90001 11.762 7.60778C11.7871 7.40894 11.8 7.20609 11.8 6.99997Z" fill="url(#paint0_linear_5359_4651)"/>
<path d="M10.2 11.2666V12.3333C10.2 12.6279 10.4388 12.8666 10.7333 12.8666C11.0279 12.8666 11.2667 12.6279 11.2667 12.3333V11.2666H12.3333C12.6279 11.2666 12.8667 11.0279 12.8667 10.7333C12.8667 10.4388 12.6279 10.2 12.3333 10.2H11.2667V9.13331C11.2667 8.83876 11.0279 8.59998 10.7333 8.59998C10.4388 8.59998 10.2 8.83876 10.2 9.13331V10.2H9.13334C8.83879 10.2 8.60001 10.4388 8.60001 10.7333C8.60001 11.0279 8.83879 11.2666 9.13334 11.2666H10.2Z" fill="#0F3C56"/>
<defs>
<linearGradient id="paint0_linear_5359_4651" x1="7" y1="1.1333" x2="3.53333" y2="10.2" gradientUnits="userSpaceOnUse">
<stop stop-color="#0F3C56"/>
<stop offset="1" stop-color="#0F3C56" stop-opacity="0.5"/>
</linearGradient>
</defs>
</svg>
