<svg width="19" height="18" viewBox="0 0 19 18" fill="none" xmlns="http://www.w3.org/2000/svg">
<path d="M8.5 4.5C8.5 4.08579 8.83579 3.75 9.25 3.75C9.66421 3.75 10 4.08579 10 4.5V8.53638L12.3892 9.73096C12.7596 9.9162 12.9099 10.3668 12.7246 10.7373C12.5394 11.1078 12.0887 11.258 11.7183 11.0728L8.91455 9.6709C8.66046 9.54385 8.5 9.28408 8.5 9V4.5ZM16 9C16 5.27208 12.9779 2.25 9.25 2.25C5.52208 2.25 2.5 5.27208 2.5 9C2.5 12.7279 5.52208 15.75 9.25 15.75C9.54456 15.75 9.83468 15.7315 10.1187 15.6951C10.5294 15.6425 10.9053 15.9325 10.958 16.3433C11.0107 16.7541 10.7199 17.1299 10.3091 17.1826C9.96201 17.2271 9.6085 17.25 9.25 17.25C4.69365 17.25 1 13.5563 1 9C1 4.44365 4.69365 0.75 9.25 0.75C13.8063 0.75 17.5 4.44365 17.5 9C17.5 9.35285 17.478 9.70116 17.4348 10.043C17.3828 10.4537 17.0077 10.7443 16.5969 10.6926C16.186 10.6408 15.8947 10.2657 15.9465 9.85474C15.9818 9.57512 16 9.28986 16 9Z" fill="white"/>
<path d="M13.75 15V16.5C13.75 16.9142 14.0858 17.25 14.5 17.25C14.9142 17.25 15.25 16.9142 15.25 16.5V15H16.75C17.1642 15 17.5 14.6642 17.5 14.25C17.5 13.8358 17.1642 13.5 16.75 13.5H15.25V12C15.25 11.5858 14.9142 11.25 14.5 11.25C14.0858 11.25 13.75 11.5858 13.75 12V13.5H12.25C11.8358 13.5 11.5 13.8358 11.5 14.25C11.5 14.6642 11.8358 15 12.25 15H13.75Z" fill="white"/>
</svg>
