<svg width="20" height="20" viewBox="0 0 20 20" fill="none" xmlns="http://www.w3.org/2000/svg">
<path d="M9.78243 19.6726C10.1178 19.9521 10.5729 19.992 10.8922 19.6807L13.3593 17.2136C13.6707 16.8942 13.6547 16.4151 13.3513 16.1038L12.1138 14.8743L13.9182 13.0778C14.2296 12.7744 14.2135 12.2874 13.9101 11.9681L12.2415 10.2914C14.4371 9.2375 15.6746 7.4491 15.6746 5.32535C15.6746 2.37924 13.2874 0 10.3413 0C7.37126 0 5 2.36327 5 5.32535C5 7.46507 6.22954 9.36528 8.16966 10.2196V17.7565C8.16966 18.0199 8.2495 18.3233 8.48103 18.5309L9.78243 19.6726ZM10.3413 18.4111L9.45509 17.5329V9.29342C7.57884 8.87025 6.27744 7.2495 6.27744 5.32535C6.27744 3.08982 8.08982 1.28543 10.3413 1.28543C12.5848 1.28543 14.3892 3.08982 14.3892 5.32535C14.3892 7.23353 13.0798 8.87025 11.0758 9.34926V10.9621L12.6407 12.5349L10.9481 14.2035V15.5289L12.0818 16.6467L10.3413 18.4111ZM10.3413 5.08582C11.0519 5.08582 11.6347 4.50299 11.6347 3.78443C11.6347 3.07385 11.0519 2.499 10.3413 2.499C9.61477 2.499 9.0479 3.07385 9.0479 3.78443C9.0479 4.50299 9.62276 5.08582 10.3413 5.08582Z" fill="#18618B"/>
</svg>
