<svg width="56" height="56" viewBox="0 0 56 56" fill="none" xmlns="http://www.w3.org/2000/svg">
<path d="M23.3333 32.6663C24.622 32.6663 25.6667 33.711 25.6667 34.9997C25.6667 36.2883 24.622 37.333 23.3333 37.333H18.6667C17.378 37.333 16.3333 36.2883 16.3333 34.9997C16.3333 33.711 17.378 32.6663 18.6667 32.6663H23.3333ZM32.6667 23.333C33.9553 23.333 35 24.3777 35 25.6663C35 26.955 33.9553 27.9997 32.6667 27.9997H18.6667C17.378 27.9997 16.3333 26.955 16.3333 25.6663C16.3333 24.3777 17.378 23.333 18.6667 23.333H32.6667ZM44.3333 23.333V15.8659C44.3333 13.8676 44.3325 12.5091 44.2467 11.459C44.1632 10.436 44.0111 9.91214 43.8252 9.54721C43.3778 8.66928 42.6637 7.9552 41.7858 7.50782C41.4209 7.32188 40.897 7.16985 39.874 7.08627C38.8239 7.00049 37.4654 6.99968 35.4671 6.99968H20.5329C18.5346 6.99968 17.1761 7.00049 16.126 7.08627C15.103 7.16985 14.5791 7.32187 14.2142 7.50782C13.3363 7.9552 12.6222 8.66928 12.1748 9.54721C11.9889 9.91214 11.8368 10.436 11.7533 11.459C11.6675 12.5091 11.6667 13.8676 11.6667 15.8659V40.1335C11.6667 42.1317 11.6675 43.4903 11.7533 44.5404C11.8368 45.5633 11.9889 46.0872 12.1748 46.4522C12.6222 47.3301 13.3363 48.0442 14.2142 48.4915C14.5791 48.6775 15.103 48.8295 16.126 48.9131C17.1761 48.9989 18.5346 48.9997 20.5329 48.9997H29.1667C30.4553 48.9997 31.5 50.0443 31.5 51.333C31.5 52.6217 30.4553 53.6663 29.1667 53.6663H20.5329C18.6114 53.6663 17.0297 53.6687 15.7454 53.5638C14.434 53.4566 13.2274 53.2271 12.0951 52.6501C10.3392 51.7553 8.91104 50.3271 8.01628 48.5713C7.43931 47.4389 7.20971 46.2324 7.10254 44.9209C6.99762 43.6367 7 42.0549 7 40.1335V15.8659C7 13.9444 6.99762 12.3627 7.10254 11.0785C7.20971 9.76699 7.4393 8.56044 8.01628 7.42806C8.91104 5.67222 10.3392 4.24405 12.0951 3.34929C13.2274 2.77231 14.434 2.54272 15.7454 2.43555C17.0297 2.33063 18.6114 2.33301 20.5329 2.33301H35.4671C37.3886 2.33301 38.9703 2.33063 40.2546 2.43555C41.566 2.54272 42.7726 2.77231 43.905 3.34929C45.6608 4.24405 47.089 5.67222 47.9837 7.42806C48.5607 8.56044 48.7903 9.76699 48.8975 11.0785C49.0024 12.3627 49 13.9444 49 15.8659V23.333C49 24.6217 47.9553 25.6663 46.6667 25.6663C45.378 25.6663 44.3333 24.6217 44.3333 23.333ZM37.3333 13.9997C38.622 13.9997 39.6667 15.0443 39.6667 16.333C39.6667 17.6217 38.622 18.6663 37.3333 18.6663H18.6667C17.378 18.6663 16.3333 17.6217 16.3333 16.333C16.3333 15.0443 17.378 13.9997 18.6667 13.9997H37.3333Z" fill="#0F3C56"/>
<path d="M42 48.9997C42 48.9997 49 45.6632 49 40.6585V34.8197L43.8956 32.9958C42.6692 32.5565 41.328 32.5565 40.1016 32.9958L35 34.8197V40.6585C35 45.6632 42 48.9997 42 48.9997Z" fill="url(#paint0_linear_5322_42582)"/>
<path d="M46.6667 36.4626L43.1097 35.1934C42.482 34.9685 41.8021 34.9406 41.1615 35.1091L40.888 35.1934L37.3333 36.4626V40.6576C37.3333 42.0712 38.3685 43.5575 39.9948 44.9141C40.7065 45.5077 41.4305 45.9867 42 46.3314C42.5695 45.9867 43.2935 45.5077 44.0052 44.9141C45.6315 43.5575 46.6667 42.0712 46.6667 40.6576V36.4626ZM39.3158 30.8001C41.0494 30.1793 42.9436 30.1802 44.6774 30.8001L44.6797 30.7979L49.7861 32.6231C50.714 32.9551 51.3333 33.8341 51.3333 34.8197V40.6576C51.3333 44.2486 48.8685 46.9355 46.9948 48.4984C45.9999 49.3282 45.0164 49.9715 44.2878 50.4056C43.9214 50.6238 43.6122 50.7919 43.39 50.9092C43.2787 50.9679 43.1887 51.0155 43.1234 51.0482C43.0907 51.0646 43.0636 51.0772 43.0436 51.0869C43.0337 51.0917 43.0252 51.0951 43.0186 51.0983C43.0152 51.0999 43.0119 51.1017 43.0094 51.1029L43.0072 51.1052C42.4516 51.37 41.8142 51.4039 41.2389 51.2054L40.9951 51.1052L40.9906 51.1029C40.9881 51.1017 40.9848 51.0999 40.9814 51.0983C40.9748 51.0951 40.9663 51.0917 40.9564 51.0869C40.9364 51.0772 40.9093 51.0646 40.8766 51.0482C40.8113 51.0155 40.7213 50.9679 40.61 50.9092C40.3878 50.7919 40.0786 50.6238 39.7122 50.4056C38.9836 49.9715 38.0001 49.3282 37.0052 48.4984C35.1315 46.9355 32.6667 44.2486 32.6667 40.6576V34.8197C32.6667 33.8341 33.286 32.9551 34.2139 32.6231L39.3158 30.8001Z" fill="#0F3C56"/>
<defs>
<linearGradient id="paint0_linear_5322_42582" x1="29.1667" y1="2.33301" x2="29.1667" y2="53.6664" gradientUnits="userSpaceOnUse">
<stop stop-color="#0F3C56"/>
<stop offset="1" stop-color="#0F3C56" stop-opacity="0.5"/>
</linearGradient>
</defs>
</svg>
