<svg width="6" height="14" viewBox="0 0 6 14" fill="none" xmlns="http://www.w3.org/2000/svg">
<path d="M5.45227 2.40237C5.45227 3.5239 4.68759 4.467 3.64891 4.72189V10.6354C3.64891 12.5216 3.31754 13.5412 3.05628 13.5412C2.80138 13.5412 2.46365 12.5152 2.46365 10.6354V4.72189C1.42496 4.46062 0.666656 3.5239 0.666656 2.40237C0.666656 1.0833 1.73083 0 3.05628 0C4.38809 0 5.45227 1.0833 5.45227 2.40237ZM1.55241 1.70778C1.55241 2.15385 1.93475 2.53618 2.37444 2.53618C2.8205 2.53618 3.19009 2.15385 3.19009 1.70778C3.19009 1.26809 2.8205 0.892123 2.37444 0.892123C1.93475 0.892123 1.55241 1.26809 1.55241 1.70778Z" fill="#18618B"/>
</svg>
