<svg width="20" height="20" viewBox="0 0 20 20" fill="none" xmlns="http://www.w3.org/2000/svg">
<g clip-path="url(#clip0_5417_2082)">
<path d="M12.3332 10.833C12.7861 10.833 13.1764 10.8321 13.4961 10.8582C13.8255 10.8852 14.1533 10.945 14.4686 11.1056C14.9388 11.3453 15.3211 11.7276 15.5607 12.1978C15.7213 12.513 15.7812 12.8409 15.8081 13.1703C15.8308 13.4479 15.8314 13.7786 15.8317 14.1574C16.0474 14.1498 16.1654 14.136 16.2646 14.1094C16.8398 13.9553 17.2889 13.5061 17.443 12.931C17.4927 12.7458 17.5 12.495 17.5 11.6663V9.83285C17.5 9.11919 17.4997 8.63399 17.4691 8.25896C17.4392 7.89361 17.3849 7.70651 17.3185 7.57618C17.1587 7.26263 16.9037 7.0076 16.5902 6.84782C16.4598 6.78141 16.2727 6.72712 15.9074 6.69727C15.5323 6.66664 15.0471 6.66635 14.3335 6.66635H5.66649C4.95283 6.66635 4.46763 6.66664 4.0926 6.69727C3.72725 6.72712 3.54015 6.78141 3.40982 6.84782C3.09627 7.0076 2.84124 7.26263 2.68147 7.57618C2.61506 7.70651 2.56076 7.89361 2.53091 8.25896C2.50028 8.63399 2.49999 9.11919 2.49999 9.83285V11.6663C2.49999 12.495 2.50732 12.7458 2.55695 12.931C2.71107 13.5061 3.16019 13.9553 3.73534 14.1094C3.83445 14.1359 3.95233 14.1497 4.16747 14.1574C4.16773 13.7786 4.1692 13.4479 4.19188 13.1703C4.21881 12.8409 4.27865 12.513 4.43928 12.1978C4.67892 11.7276 5.06122 11.3453 5.5314 11.1056C5.84665 10.945 6.17451 10.8852 6.50389 10.8582C6.82362 10.8321 7.21386 10.833 7.66682 10.833H12.3332ZM7.66682 12.4997C7.18636 12.4997 6.87591 12.5007 6.6398 12.52C6.41348 12.5385 6.32944 12.5698 6.28824 12.5908C6.1316 12.6707 6.00433 12.798 5.92447 12.9546C5.90348 12.9958 5.87216 13.0798 5.85367 13.3062C5.83438 13.5423 5.83332 13.8527 5.83332 14.3332V15.6662C5.83332 16.1466 5.83438 16.4571 5.85367 16.6932C5.87216 16.9195 5.90348 17.0036 5.92447 17.0448C6.00433 17.2014 6.13159 17.3287 6.28824 17.4085C6.32944 17.4295 6.41348 17.4608 6.6398 17.4793C6.87591 17.4986 7.18636 17.4997 7.66682 17.4997H12.3332C12.8136 17.4997 13.1241 17.4986 13.3602 17.4793C13.5865 17.4608 13.6705 17.4295 13.7117 17.4085C13.8684 17.3287 13.9956 17.2014 14.0755 17.0448C14.0965 17.0036 14.1278 16.9195 14.1463 16.6932C14.1656 16.4571 14.1667 16.1466 14.1667 15.6662V14.3332C14.1667 13.8527 14.1656 13.5423 14.1463 13.3062C14.1278 13.0798 14.0965 12.9958 14.0755 12.9546C13.9956 12.798 13.8684 12.6707 13.7117 12.5908C13.6705 12.5698 13.5865 12.5385 13.3602 12.52C13.1241 12.5007 12.8136 12.4997 12.3332 12.4997H7.66682ZM15 7.91635C15.4602 7.91635 15.8333 8.28944 15.8333 8.74968C15.8333 9.20992 15.4602 9.58301 15 9.58301H12.5C12.0398 9.58301 11.6667 9.20992 11.6667 8.74968C11.6667 8.28944 12.0398 7.91635 12.5 7.91635H15ZM14.1667 4.33317C14.1667 3.85271 14.1656 3.54227 14.1463 3.30616C14.1278 3.07983 14.0965 2.99579 14.0755 2.95459C13.9956 2.79795 13.8684 2.67069 13.7117 2.59082C13.6705 2.56983 13.5865 2.53852 13.3602 2.52002C13.1241 2.50073 12.8136 2.49968 12.3332 2.49968H7.66682C7.18636 2.49968 6.87591 2.50073 6.6398 2.52002C6.41348 2.53852 6.32944 2.56983 6.28824 2.59082C6.1316 2.67069 6.00433 2.79795 5.92447 2.95459C5.90348 2.99579 5.87216 3.07983 5.85367 3.30616C5.83438 3.54227 5.83332 3.85271 5.83332 4.33317V4.99968H14.1667V4.33317ZM15.8333 5.02409C15.9056 5.02808 15.9757 5.03078 16.0433 5.0363C16.5117 5.07457 16.9426 5.15657 17.347 5.36263C17.9741 5.68219 18.4841 6.19225 18.8037 6.81934C19.0098 7.22376 19.0918 7.65467 19.13 8.12305C19.1675 8.5817 19.1667 9.14661 19.1667 9.83285V11.6663C19.1667 12.3877 19.1735 12.9117 19.0527 13.3623C18.7445 14.5126 17.8463 15.4109 16.696 15.7191C16.4393 15.7878 16.1589 15.8133 15.8317 15.8241C15.8315 16.2103 15.8311 16.5471 15.8081 16.8291C15.7812 17.1585 15.7213 17.4864 15.5607 17.8016C15.3211 18.2718 14.9388 18.6541 14.4686 18.8937C14.1533 19.0543 13.8255 19.1142 13.4961 19.1411C13.1764 19.1672 12.7861 19.1663 12.3332 19.1663H7.66682C7.21386 19.1663 6.82362 19.1672 6.50389 19.1411C6.17451 19.1142 5.84665 19.0543 5.5314 18.8937C5.06122 18.6541 4.67892 18.2718 4.43928 17.8016C4.27865 17.4864 4.21881 17.1585 4.19188 16.8291C4.16884 16.5471 4.16767 16.2103 4.16747 15.8241C3.84064 15.8133 3.56044 15.7878 3.30402 15.7191C2.15372 15.4109 1.25548 14.5126 0.947254 13.3623C0.826517 12.9117 0.833322 12.3877 0.833322 11.6663V9.83285C0.833322 9.14661 0.83247 8.5817 0.869943 8.12305C0.908217 7.65467 0.990215 7.22376 1.19628 6.81934C1.51583 6.19225 2.02589 5.68219 2.65298 5.36263C3.0574 5.15657 3.48831 5.07457 3.95669 5.0363C4.02429 5.03078 4.0944 5.02808 4.16666 5.02409V4.33317C4.16666 3.88021 4.16576 3.48998 4.19188 3.17025C4.21881 2.84087 4.27865 2.51301 4.43928 2.19776C4.67892 1.72757 5.06122 1.34528 5.5314 1.10564C5.84665 0.945009 6.17451 0.885165 6.50389 0.858239C6.82362 0.832117 7.21386 0.833011 7.66682 0.833011H12.3332C12.7861 0.833011 13.1764 0.832117 13.4961 0.858239C13.8255 0.885165 14.1533 0.945008 14.4686 1.10564C14.9388 1.34528 15.3211 1.72757 15.5607 2.19776C15.7213 2.51301 15.7812 2.84087 15.8081 3.17025C15.8342 3.48998 15.8333 3.88021 15.8333 4.33317V5.02409Z" fill="#18618B"/>
</g>
<defs>
<clipPath id="clip0_5417_2082">
<rect width="20" height="20" fill="white"/>
</clipPath>
</defs>
</svg>
