<svg width="34" height="34" viewBox="0 0 34 34" fill="none" xmlns="http://www.w3.org/2000/svg">
<path d="M17 0.333008C26.2047 0.333008 33.667 7.79525 33.667 17C33.667 26.2047 26.2047 33.667 17 33.667C7.79525 33.667 0.333008 26.2047 0.333008 17C0.333008 7.79525 7.79525 0.333008 17 0.333008ZM17.25 21.167C16.3298 21.1671 15.5842 21.9128 15.584 22.833C15.584 23.7534 16.3297 24.4998 17.25 24.5H17.2666C18.1871 24.5 18.9336 23.7535 18.9336 22.833C18.9334 21.9127 18.187 21.167 17.2666 21.167H17.25ZM18.1172 8.74414C16.8571 8.52804 15.5612 8.76533 14.459 9.41309C13.3567 10.0609 12.519 11.0781 12.0947 12.2842C11.7894 13.1524 12.246 14.1038 13.1143 14.4092C13.9824 14.7145 14.9336 14.2586 15.2393 13.3906C15.4023 12.9273 15.724 12.5361 16.1475 12.2871C16.5711 12.0382 17.0694 11.9472 17.5537 12.0303C18.0379 12.1133 18.4775 12.3644 18.7939 12.7402C19.1104 13.1161 19.283 13.5926 19.2822 14.084V14.0859C19.2822 14.4502 18.9873 14.9524 18.1514 15.5098C17.784 15.7547 17.4043 15.9455 17.1104 16.0762C16.9658 16.1404 16.8476 16.188 16.7695 16.2178C16.7307 16.2325 16.702 16.2422 16.6855 16.248L16.6699 16.2539C15.7999 16.5469 15.3306 17.4888 15.6211 18.3604C15.9122 19.2336 16.8563 19.7051 17.7295 19.4141L17.7393 19.4111L17.7549 19.4053L17.8027 19.3887C17.8411 19.375 17.8928 19.3561 17.9561 19.332C18.0829 19.2837 18.2581 19.2139 18.4648 19.1221C18.8735 18.9404 19.4307 18.6627 20 18.2832C21.0372 17.5917 22.6153 16.2207 22.6162 14.0879C22.6179 12.8097 22.1669 11.5716 21.3438 10.5938C20.5204 9.61572 19.3773 8.96028 18.1172 8.74414Z" fill="url(#paint0_linear_6014_3600)"/>
<defs>
<linearGradient id="paint0_linear_6014_3600" x1="11.1666" y1="11.1666" x2="32.8336" y2="42.0005" gradientUnits="userSpaceOnUse">
<stop stop-color="#0F3C56"/>
<stop offset="1" stop-color="#0F3C56" stop-opacity="0.5"/>
</linearGradient>
</defs>
</svg>
