<svg width="24" height="24" viewBox="0 0 24 24" fill="none" xmlns="http://www.w3.org/2000/svg">
<path d="M0.999999 21C0.999999 19.6774 0.988803 18.7943 1.21484 18.0488C1.69959 16.4508 2.95082 15.1996 4.54883 14.7148C5.29428 14.4888 6.1774 14.5 7.5 14.5H12C12.5523 14.5 13 14.9477 13 15.5C13 16.0523 12.5523 16.5 12 16.5H7.5C6.03168 16.5 5.51897 16.5106 5.12891 16.6289C4.17022 16.9198 3.41977 17.6702 3.12891 18.6289C3.01058 19.019 3 19.5317 3 21C3 21.5523 2.55228 22 2 22C1.44771 22 0.999999 21.5523 0.999999 21ZM13.5 7.5C13.5 5.567 11.933 4 10 4C8.067 4 6.5 5.567 6.5 7.5C6.5 9.433 8.067 11 10 11C11.933 11 13.5 9.433 13.5 7.5ZM15.5 7.5C15.5 10.5376 13.0376 13 10 13C6.96243 13 4.5 10.5376 4.5 7.5C4.5 4.46243 6.96243 2 10 2C13.0376 2 15.5 4.46243 15.5 7.5Z" fill="#0F3C56"/>
<path fill-rule="evenodd" clip-rule="evenodd" d="M16 13C16.5523 13 17 13.4477 17 14V21.5C17 22.0523 16.5523 22.5 16 22.5C15.4477 22.5 15 22.0523 15 21.5V14C15 13.4477 15.4477 13 16 13ZM20 15.5C20.5523 15.5 21 15.9477 21 16.5V21.5C21 22.0523 20.5523 22.5 20 22.5C19.4477 22.5 19 22.0523 19 21.5V16.5C19 15.9477 19.4477 15.5 20 15.5ZM12 17.5C12.5523 17.5 13 17.9477 13 18.5V21.5C13 22.0523 12.5523 22.5 12 22.5C11.4477 22.5 11 22.0523 11 21.5V18.5C11 17.9477 11.4477 17.5 12 17.5Z" fill="#0F3C56"/>
</svg>
