<svg width="24" height="24" viewBox="0 0 24 24" fill="none" xmlns="http://www.w3.org/2000/svg">
<path d="M19 8.00001C19 7.00567 18.9912 6.70471 18.9317 6.48244C18.7467 5.79225 18.2078 5.25331 17.5176 5.06837C17.397 5.03607 17.2533 5.01886 16.9883 5.00978C16.9861 5.05387 16.9868 5.09732 16.9834 5.13869C16.9647 5.36719 16.9205 5.63696 16.7822 5.90822C16.5905 6.28447 16.2845 6.59051 15.9082 6.78224C15.637 6.92045 15.3672 6.96472 15.1387 6.98341C14.9219 7.00113 14.6638 7.00001 14.4004 7.00001H9.59963C9.33624 7.00001 9.07816 7.00113 8.86135 6.98341C8.63285 6.96472 8.36308 6.92045 8.09182 6.78224C7.71557 6.59051 7.40953 6.28447 7.2178 5.90822C7.07958 5.63696 7.03532 5.36719 7.01662 5.13869C7.01324 5.0973 7.01293 5.05389 7.01077 5.00978C6.74637 5.01886 6.60287 5.0361 6.48244 5.06837C5.79226 5.25331 5.25332 5.79225 5.06838 6.48244C5.00882 6.70471 5.00002 7.00567 5.00002 8.00001V17.2002C5.00002 18.0566 5.00037 18.6388 5.03713 19.0889C5.07295 19.5273 5.13811 19.7518 5.2178 19.9082C5.40953 20.2845 5.71557 20.5905 6.09182 20.7822C6.24822 20.8619 6.47274 20.9271 6.91116 20.9629C7.36119 20.9997 7.94344 21 8.79983 21H15.2002C16.0566 21 16.6389 20.9997 17.0889 20.9629C17.5273 20.9271 17.7518 20.8619 17.9082 20.7822C18.2845 20.5905 18.5905 20.2845 18.7822 19.9082C18.8619 19.7518 18.9271 19.5273 18.9629 19.0889C18.9997 18.6388 19 18.0566 19 17.2002V8.00001ZM9.59963 3.00001C9.30335 3.00001 9.14097 3.00124 9.02444 3.01076C9.01998 3.01112 9.01574 3.01136 9.01174 3.01173C9.01137 3.01574 9.01113 3.01997 9.01077 3.02443C9.00124 3.14096 9.00002 3.30334 9.00002 3.59962V4.4004C9.00002 4.69668 9.00124 4.85907 9.01077 4.9756C9.0111 4.9797 9.0114 4.9836 9.01174 4.98732C9.01577 4.98769 9.01995 4.9889 9.02444 4.98927C9.14097 4.99879 9.30335 5.00001 9.59963 5.00001H14.4004C14.6967 5.00001 14.8591 4.99879 14.9756 4.98927C14.9797 4.98893 14.9836 4.98766 14.9873 4.98732C14.9877 4.98358 14.9889 4.97973 14.9893 4.9756C14.9988 4.85907 15 4.69668 15 4.4004V3.59962C15 3.30334 14.9988 3.14096 14.9893 3.02443C14.9889 3.01994 14.9877 3.01576 14.9873 3.01173C14.9836 3.01139 14.9797 3.01109 14.9756 3.01076C14.8591 3.00124 14.6967 3.00001 14.4004 3.00001H9.59963ZM21 17.2002C21 18.0237 21.001 18.7016 20.9561 19.252C20.9101 19.814 20.8118 20.3311 20.5645 20.8164C20.181 21.5689 19.5689 22.181 18.8164 22.5645C18.3311 22.8117 17.814 22.9101 17.252 22.9561C16.7016 23.001 16.0237 23 15.2002 23H8.79983C7.97634 23 7.29845 23.001 6.74807 22.9561C6.18601 22.9101 5.66892 22.8117 5.18362 22.5645C4.43111 22.181 3.81904 21.5689 3.43557 20.8164C3.18829 20.3311 3.0899 19.814 3.04397 19.252C2.999 18.7016 3.00002 18.0237 3.00002 17.2002V8.00001C3.00002 7.13443 2.99186 6.50558 3.13674 5.96486C3.50661 4.58449 4.5845 3.5066 5.96487 3.13673C6.27487 3.05367 6.61382 3.02249 7.00979 3.00978C7.0121 2.95877 7.01275 2.90881 7.01662 2.86134C7.03532 2.63284 7.07958 2.36307 7.2178 2.09181C7.40953 1.71556 7.71557 1.40952 8.09182 1.21779C8.36308 1.07957 8.63285 1.03531 8.86135 1.01662C9.07816 0.998901 9.33624 1.00001 9.59963 1.00001H14.4004C14.6638 1.00001 14.9219 0.998901 15.1387 1.01662C15.3672 1.03531 15.637 1.07957 15.9082 1.21779C16.2375 1.38556 16.513 1.64086 16.7051 1.95412L16.7822 2.09181L16.8692 2.29494C16.9407 2.49578 16.9694 2.69006 16.9834 2.86134C16.9873 2.9088 16.987 2.95878 16.9893 3.00978C17.3857 3.02247 17.7249 3.0536 18.0352 3.13673C19.4155 3.5066 20.4934 4.58449 20.8633 5.96486C21.0082 6.50558 21 7.13443 21 8.00001V17.2002Z" fill="#0F3C56"/>
<path fill-rule="evenodd" clip-rule="evenodd" d="M12 10C12.5523 10 13 10.4477 13 11V18.5C13 19.0523 12.5523 19.5 12 19.5C11.4477 19.5 11 19.0523 11 18.5V11C11 10.4477 11.4477 10 12 10ZM16 12.5C16.5523 12.5 17 12.9477 17 13.5V18.5C17 19.0523 16.5523 19.5 16 19.5C15.4477 19.5 15 19.0523 15 18.5V13.5C15 12.9477 15.4477 12.5 16 12.5ZM8 14.5C8.55228 14.5 9 14.9477 9 15.5V18.5C9 19.0523 8.55228 19.5 8 19.5C7.44772 19.5 7 19.0523 7 18.5V15.5C7 14.9477 7.44772 14.5 8 14.5Z" fill="#0F3C56"/>
</svg>
