<svg width="12" height="12" viewBox="0 0 12 12" fill="none" xmlns="http://www.w3.org/2000/svg">
<path d="M1.73486 2.5259C3.35683 0.530025 6.19309 -0.0941079 8.52588 1.11428L8.75 1.23684L8.96826 1.36965C11.181 2.78573 12.0586 5.55402 11.1411 7.95656C11.0724 8.13662 10.9886 8.39334 10.7622 8.57912C10.5906 8.71985 10.3455 8.80668 10.1235 8.80568C9.9634 8.80493 9.82901 8.7611 9.71484 8.70949C9.61119 8.66263 9.49735 8.59632 9.38721 8.53273L7.48633 7.43508C7.48494 7.43429 7.48332 7.43392 7.48193 7.43313C7.4801 7.43207 7.47838 7.43079 7.47656 7.42971L6.18311 6.68264L3.97949 10.5H11C11.2761 10.5 11.5 10.7239 11.5 11C11.4999 11.2761 11.2761 11.5 11 11.5H1C0.723905 11.5 0.500077 11.2761 0.5 11C0.5 10.7239 0.723858 10.5 1 10.5H2.82422L5.31689 6.18264L2.11279 4.33303C2.00265 4.26944 1.88831 4.20405 1.7959 4.13772C1.69414 4.06467 1.58902 3.97031 1.5083 3.83205C1.39637 3.64027 1.3491 3.38416 1.38525 3.16506C1.43293 2.87609 1.61331 2.67548 1.73486 2.5259ZM9.53564 3.21584C9.52778 3.37874 9.51183 3.54612 9.4873 3.71633C9.35489 4.63541 8.9823 5.72011 8.40625 6.81203L9.88721 7.66701C10.0132 7.73974 10.0775 7.77606 10.1255 7.79787C10.1323 7.78393 10.1423 7.76431 10.1543 7.73488C10.1691 7.6986 10.185 7.65599 10.2065 7.59963C10.7771 6.10545 10.4977 4.43846 9.53564 3.21584ZM8.25 2.10256C8.16827 2.05541 8.02345 2.02516 7.77197 2.10012C7.51905 2.17556 7.20536 2.34603 6.85205 2.62404C6.23706 3.10802 5.56442 3.86823 4.95996 4.8218L7.53955 6.31154C8.06328 5.31107 8.38594 4.34846 8.49756 3.57375C8.56168 3.12866 8.55239 2.77192 8.49121 2.51516C8.43796 2.29168 8.35574 2.17966 8.28125 2.12356L8.25 2.10256ZM6.64307 1.54592C5.10324 1.3241 3.51991 1.91557 2.51123 3.15676C2.47311 3.20367 2.44447 3.23905 2.42041 3.27004C2.40089 3.2952 2.38807 3.31285 2.37939 3.3257C2.42227 3.35643 2.48616 3.3937 2.61279 3.46682L4.09326 4.32131C4.75081 3.27666 5.50425 2.41205 6.23389 1.83791C6.36899 1.7316 6.50597 1.63415 6.64307 1.54592Z" fill="#8CC8EB"/>
</svg>
