<svg width="12" height="12" viewBox="0 0 12 12" fill="none" xmlns="http://www.w3.org/2000/svg">
<path d="M5.76 0C4.62078 0 3.50714 0.337818 2.55992 0.970735C1.61269 1.60365 0.874417 2.50324 0.438456 3.55574C0.00249572 4.60824 -0.111571 5.76639 0.110679 6.88372C0.33293 8.00105 0.881517 9.02738 1.68707 9.83293C2.49262 10.6385 3.51895 11.1871 4.63628 11.4093C5.75361 11.6316 6.91176 11.5175 7.96426 11.0815C9.01676 10.6456 9.91635 9.90731 10.5493 8.96008C11.1822 8.01286 11.52 6.89922 11.52 5.76C11.5184 4.23285 10.911 2.76871 9.83115 1.68885C8.7513 0.608986 7.28715 0.0016127 5.76 0ZM5.76 10.6338C4.79605 10.6338 3.85374 10.348 3.05224 9.81245C2.25074 9.27691 1.62605 8.51572 1.25716 7.62514C0.888266 6.73456 0.791747 5.75459 0.979806 4.80916C1.16786 3.86373 1.63205 2.99529 2.31367 2.31367C2.99529 1.63205 3.86373 1.16786 4.80916 0.979803C5.75459 0.791745 6.73456 0.888263 7.62514 1.25715C8.51572 1.62604 9.27691 2.25074 9.81246 3.05224C10.348 3.85374 10.6338 4.79604 10.6338 5.76C10.6324 7.05217 10.1184 8.291 9.20471 9.20471C8.29101 10.1184 7.05218 10.6324 5.76 10.6338ZM9.30462 5.76C9.30462 5.87751 9.25794 5.99021 9.17484 6.0733C9.09175 6.15639 8.97905 6.20308 8.86154 6.20308H5.76C5.64249 6.20308 5.52979 6.15639 5.4467 6.0733C5.36361 5.99021 5.31692 5.87751 5.31692 5.76V2.65846C5.31692 2.54095 5.36361 2.42825 5.4467 2.34516C5.52979 2.26207 5.64249 2.21538 5.76 2.21538C5.87751 2.21538 5.99021 2.26207 6.0733 2.34516C6.1564 2.42825 6.20308 2.54095 6.20308 2.65846V5.31692H8.86154C8.97905 5.31692 9.09175 5.3636 9.17484 5.4467C9.25794 5.52979 9.30462 5.64249 9.30462 5.76Z" fill="#FFB84D"/>
</svg>
