<svg width="15" height="15" viewBox="0 0 15 15" fill="none" xmlns="http://www.w3.org/2000/svg">
<path d="M13.5003 3.83334L7.16699 7.16667V13.8333L13.5003 10.1667V3.83334Z" fill="url(#paint0_linear_6008_7849)" fill-opacity="0.5"/>
<path d="M13.3333 7.20573V7.12825C13.3333 6.27681 13.3326 5.67387 13.2858 5.19857C13.24 4.73369 13.1534 4.4331 13.0046 4.18034C12.8562 3.92862 12.6416 3.71566 12.2708 3.4681C11.8895 3.21351 11.3792 2.94495 10.653 2.5638L9.31966 1.86393C8.72654 1.55251 8.31079 1.3348 7.9655 1.19206C7.62937 1.05311 7.39302 1 7.16667 1C6.94051 1 6.70459 1.05364 6.36849 1.19271C6.0231 1.33564 5.60694 1.55308 5.01367 1.86458L3.68034 2.56445C2.95419 2.94525 2.4438 3.21411 2.0625 3.46875C1.69175 3.71635 1.47714 3.9292 1.32878 4.18099C1.17997 4.43375 1.09329 4.73434 1.04753 5.19922C1.00074 5.67452 1 6.27746 1 7.12891V7.20638C1 8.05708 1.00076 8.65966 1.04753 9.13476C1.09329 9.59948 1.17996 9.90022 1.32878 10.153C1.4771 10.4047 1.69169 10.6177 2.0625 10.8652C2.44388 11.1198 2.95416 11.3884 3.68034 11.7695L5.01367 12.4694C5.60679 12.7808 6.02254 12.9985 6.36784 13.1413C6.70396 13.2802 6.94031 13.3333 7.16667 13.3333C7.39288 13.3333 7.62924 13.2797 7.9655 13.1406C8.31085 12.9978 8.72661 12.7804 9.31966 12.4694L10.653 11.7702L11.1582 11.5039C11.6261 11.2555 11.9847 11.0563 12.2708 10.8652C12.6416 10.6175 12.8562 10.4048 13.0046 10.153C13.1534 9.90023 13.24 9.59957 13.2858 9.13476C13.3326 8.65956 13.3333 8.0568 13.3333 7.20573ZM14.3333 7.20573C14.3333 8.03728 14.334 8.69762 14.2812 9.23307C14.2275 9.77881 14.115 10.237 13.8659 10.6602C13.6156 11.085 13.2721 11.3987 12.8262 11.6966C12.3907 11.9875 11.8256 12.2841 11.1178 12.6556L9.7845 13.3548C9.20722 13.6576 8.74484 13.9008 8.34766 14.0651C7.94124 14.2332 7.56979 14.3333 7.16667 14.3333C6.76369 14.3333 6.39222 14.2332 5.98568 14.0651C5.5884 13.9009 5.12617 13.658 4.54883 13.3548L3.21549 12.6549C2.50781 12.2835 1.94259 11.9873 1.50716 11.6966C1.06119 11.3989 0.71779 11.0851 0.467448 10.6602C0.218298 10.237 0.105828 9.77876 0.0520837 9.23307C-0.000632361 8.6977 3.47682e-07 8.0376 3.47682e-07 7.20638V7.12891C3.47682e-07 6.29717 -0.000601118 5.63704 0.0520837 5.10156C0.105821 4.55564 0.218268 4.09706 0.467448 3.67383C0.717736 3.24901 1.06116 2.93523 1.50716 2.63737C1.94265 2.34654 2.50775 2.05018 3.21549 1.67904L4.54883 0.979167C5.12621 0.676007 5.58841 0.432629 5.98568 0.268229C6.39215 0.100023 6.76353 0 7.16667 0C7.56964 0 7.94111 0.100174 8.34766 0.268229C8.74494 0.432482 9.20716 0.675376 9.7845 0.978516L11.1178 1.67839C11.8255 2.04983 12.3907 2.34602 12.8262 2.63672C13.2721 2.93446 13.6155 3.24827 13.8659 3.67318C14.1151 4.09641 14.2275 4.55499 14.2812 5.10091C14.3339 5.63639 14.3333 6.29653 14.3333 7.12825V7.20573Z" fill="#0F3C56"/>
<path d="M6.66667 13.5V7.47526L0.94336 4.61393C0.696457 4.49048 0.596107 4.1903 0.719401 3.94336C0.842853 3.69646 1.14303 3.59611 1.38997 3.7194L7.16667 6.60742L9.4043 5.48828L3.93359 2.60937C3.68927 2.48075 3.59536 2.17794 3.72396 1.93359C3.85259 1.68927 4.15539 1.59536 4.39974 1.72396L10.5059 4.9375L12.9434 3.7194C13.1903 3.59611 13.4905 3.69646 13.6139 3.94336C13.7372 4.1903 13.6369 4.49048 13.39 4.61393L7.66667 7.47526V13.5C7.66667 13.7761 7.44281 14 7.16667 14C6.89052 14 6.66667 13.7761 6.66667 13.5Z" fill="#0F3C56"/>
<defs>
<linearGradient id="paint0_linear_6008_7849" x1="6.50033" y1="6.16667" x2="13.5003" y2="12.1667" gradientUnits="userSpaceOnUse">
<stop stop-color="#0F3C56"/>
<stop offset="1" stop-color="#0F3C56" stop-opacity="0.5"/>
</linearGradient>
</defs>
</svg>
